<svg width="438" height="124" viewBox="0 0 438 124" fill="none" xmlns="http://www.w3.org/2000/svg">
<g clip-path="url(#clip0_524_180)">
<path d="M73.4595 34.1237C74.5402 34.5846 75.7908 34.0752 76.2522 32.9955L82.6632 17.8807C83.1246 16.801 82.6146 15.5516 81.534 15.0906C80.4534 14.6296 79.2027 15.1391 78.7413 16.2188L72.3303 31.3336C71.8689 32.4132 72.3789 33.6627 73.4595 34.1237Z" fill="#FF8B00"/>
<path d="M47.6213 32.9591C48.0584 34.0387 49.309 34.5725 50.3897 34.1358C51.4703 33.6991 52.0046 32.4496 51.5674 31.37L45.4114 16.1581C44.9743 15.0785 43.7237 14.5447 42.643 14.9814C41.5624 15.4181 41.0282 16.6676 41.4653 17.7472L47.6213 32.9591Z" fill="#FF8B00"/>
<path d="M62.058 0C27.8417 0 0 27.8157 0 62C0 96.1843 27.8417 124 62.058 124C96.2743 124 124.116 96.1843 124.116 62C124.116 27.8157 96.2743 0 62.058 0ZM62.058 5.03424C93.4937 5.03424 119.065 30.5815 119.065 61.9879C119.065 73.3422 115.714 83.9202 109.958 92.7998C100.876 89.5609 89.3654 87.341 76.8106 86.3463C76.8591 86.1158 76.8834 85.8732 76.8834 85.6306V60.3138C76.8834 58.9795 76.2156 57.7421 75.0985 57.0264L64.1707 49.0808C62.9079 48.268 61.208 48.2559 59.9088 49.0808L49.0174 57.0143C47.8882 57.7421 47.2204 58.9673 47.2204 60.3138V85.6306C47.2204 85.8611 47.2447 86.0916 47.2811 86.3221C34.7262 87.2804 23.2034 89.4882 14.0726 92.6907C8.36587 83.8231 5.03895 73.2815 5.03895 61.9879C5.03895 30.5936 30.6222 5.03424 62.058 5.03424ZM51.1423 85.9581C50.9723 85.9581 50.8266 85.8126 50.8266 85.6427V60.326C50.8266 60.2168 50.8752 60.1197 50.9844 60.047L61.8759 52.1135C61.9366 52.0771 62.0094 52.065 62.0458 52.065C62.0823 52.065 62.1551 52.065 62.2037 52.1013L73.1315 60.047C73.2287 60.1076 73.2772 60.2047 73.2772 60.3138V85.6306C73.2772 85.8004 73.1315 85.946 72.9615 85.946H70.096C67.3762 85.8247 64.6321 85.764 61.8637 85.764C59.0953 85.764 56.3634 85.8247 53.6436 85.946H51.1301L51.1423 85.9581ZM28.3517 107.903C38.551 105.707 50.4623 104.506 62.8594 104.506C75.2564 104.506 86.2207 105.61 96.1286 107.636C86.6213 114.744 74.8193 118.954 62.058 118.954C49.2967 118.954 37.8103 114.841 28.3517 107.903ZM100.354 104.154C89.4019 101.595 76.4099 100.187 62.8594 100.187C49.3088 100.187 35.3334 101.704 24.1141 104.457C21.37 102.007 18.8687 99.314 16.6467 96.3784C28.6552 92.3631 44.8041 90.0947 61.8637 90.0947C78.9233 90.0947 95.3515 92.3995 107.384 96.4754C105.272 99.2412 102.928 101.813 100.354 104.142V104.154Z" fill="#FF8B00"/>
<path d="M60.1517 62.8127H55.3799V67.5801H60.1517V62.8127Z" fill="#FF8B00"/>
<path d="M68.7362 62.8127H63.9644V67.5801H68.7362V62.8127Z" fill="#FF8B00"/>
<path d="M60.1517 71.3892H55.3799V76.1565H60.1517V71.3892Z" fill="#FF8B00"/>
<path d="M68.7362 71.3892H63.9644V76.1565H68.7362V71.3892Z" fill="#FF8B00"/>
<path d="M62.1795 37.5688C62.1795 37.5688 62.0945 37.5688 62.0581 37.5809C62.0217 37.5809 61.9731 37.5688 61.9367 37.5688C48.374 37.5688 37.3369 48.5956 37.3369 62.1456C37.3369 65.8091 38.1261 69.3391 39.6803 72.6386C40.0082 73.3301 40.6881 73.7304 41.4045 73.7304C41.6716 73.7304 41.9509 73.6698 42.218 73.5484C43.1651 73.0996 43.5779 71.9715 43.1287 71.0253C41.8173 68.2473 41.1495 65.2632 41.1495 62.1577C41.1495 50.6942 50.4867 41.3778 61.961 41.3778C62.0095 41.3778 62.046 41.3778 62.0824 41.3657C62.1188 41.3657 62.1674 41.3778 62.2038 41.3778C73.6781 41.3778 83.0031 50.7063 83.0031 62.1577C83.0031 65.2632 82.3353 68.2473 81.024 71.0253C80.5747 71.9715 80.9876 73.0996 81.9347 73.5484C82.2018 73.6698 82.4689 73.7304 82.7482 73.7304C83.4645 73.7304 84.1445 73.3301 84.4723 72.6386C86.0265 69.3512 86.8158 65.8212 86.8158 62.1456C86.8158 48.5956 75.7786 37.5688 62.2038 37.5688H62.1795Z" fill="#FF8B00"/>
<path d="M90.0579 73.3301C89.5965 74.4097 90.1064 75.6592 91.1871 76.1202L106.316 82.5252C107.397 82.9861 108.647 82.4766 109.109 81.397C109.57 80.3174 109.06 79.0679 107.98 78.607L92.8505 72.2019C91.7699 71.741 90.5193 72.2505 90.0579 73.3301Z" fill="#FF8B00"/>
<path d="M91.0169 47.4432C89.9363 47.892 89.4263 49.1536 89.8756 50.2211C90.3248 51.2886 91.5755 51.8102 92.6561 51.3614L107.797 45.0049C108.878 44.5561 109.388 43.3066 108.939 42.227C108.489 41.1473 107.239 40.6378 106.158 41.0867L91.0169 47.4432Z" fill="#FF8B00"/>
<path d="M34.2284 73.7789C34.6898 74.8586 34.1798 76.108 33.0992 76.569L17.9702 82.974C16.8895 83.435 15.6389 82.9255 15.1775 81.8459C14.7161 80.7662 15.2261 79.5168 16.3067 79.0558L31.4357 72.6508C32.5163 72.1898 33.767 72.6993 34.2284 73.7789Z" fill="#FF8B00"/>
<path d="M32.8929 47.8678C33.9735 48.3045 34.5078 49.5539 34.0707 50.6336C33.6335 51.7132 32.3829 52.2469 31.3023 51.8102L16.0761 45.66C14.9955 45.2233 14.4613 43.9738 14.8984 42.8942C15.3355 41.8145 16.5861 41.2808 17.6668 41.7175L32.8929 47.8678Z" fill="#FF8B00"/>
<path d="M152.298 55.7042C151.181 55.7042 150.076 55.6193 148.959 55.4616C147.841 55.3039 146.797 55.0492 145.814 54.7095C144.83 54.3698 143.944 53.9453 143.167 53.4358C142.705 53.1325 142.39 52.7686 142.22 52.3319C142.038 51.9073 141.989 51.4827 142.05 51.0703C142.11 50.6578 142.28 50.2818 142.548 49.9664C142.815 49.651 143.142 49.4569 143.555 49.3841C143.968 49.3113 144.405 49.4205 144.879 49.7238C145.996 50.3788 147.162 50.8641 148.4 51.1673C149.638 51.4706 150.938 51.6283 152.31 51.6283C154.301 51.6283 155.758 51.2886 156.669 50.6214C157.579 49.9543 158.029 49.093 158.029 48.0255C158.029 47.1399 157.701 46.4485 157.057 45.939C156.414 45.4295 155.309 45.0171 153.742 44.6895L149.578 43.8161C147.174 43.3066 145.389 42.4575 144.211 41.2565C143.033 40.0556 142.45 38.4786 142.45 36.5013C142.45 35.264 142.705 34.1358 143.203 33.129C143.713 32.1221 144.417 31.2487 145.34 30.5209C146.263 29.793 147.356 29.2229 148.643 28.8347C149.918 28.4465 151.326 28.2524 152.868 28.2524C154.41 28.2524 155.831 28.4465 157.191 28.8226C158.551 29.1986 159.777 29.7566 160.87 30.4845C161.271 30.7635 161.55 31.1032 161.683 31.5035C161.817 31.9038 161.853 32.3041 161.781 32.6923C161.708 33.0805 161.526 33.4201 161.246 33.6991C160.967 33.9781 160.627 34.1358 160.202 34.1965C159.789 34.245 159.316 34.1237 158.781 33.8204C157.847 33.2867 156.899 32.9106 155.94 32.6801C154.981 32.4497 153.949 32.3405 152.832 32.3405C151.715 32.3405 150.671 32.5103 149.833 32.8378C148.995 33.1654 148.364 33.6263 147.914 34.2207C147.465 34.8151 147.246 35.5187 147.246 36.3194C147.246 37.2292 147.55 37.957 148.157 38.4907C148.764 39.0366 149.796 39.4612 151.266 39.7645L155.394 40.6379C157.895 41.1716 159.765 41.9965 160.991 43.1368C162.218 44.2771 162.825 45.7934 162.825 47.6858C162.825 48.8989 162.582 49.9907 162.084 50.9854C161.586 51.968 160.882 52.8171 159.959 53.5207C159.036 54.2243 157.931 54.7701 156.644 55.1462C155.357 55.5222 153.9 55.7163 152.285 55.7163L152.298 55.7042Z" fill="white"/>
<path d="M173.34 45.939C172.854 46.218 172.417 46.3272 172.016 46.2786C171.615 46.2301 171.275 46.0724 171.008 45.8055C170.741 45.5387 170.571 45.2233 170.474 44.8351C170.389 44.459 170.413 44.083 170.571 43.6948C170.717 43.3187 171.045 42.9912 171.518 42.7122L184.219 35.3974C184.692 35.1184 185.142 35.0092 185.542 35.0699C185.943 35.1305 186.283 35.3003 186.55 35.5672C186.817 35.8341 186.987 36.1495 187.084 36.5377C187.169 36.9137 187.145 37.2898 186.987 37.678C186.842 38.054 186.526 38.3815 186.04 38.6606L173.34 45.9268V45.939ZM177.055 55.3281C176.266 55.3281 175.659 55.1098 175.234 54.6609C174.809 54.2242 174.59 53.6056 174.59 52.8292V30.9818C174.59 30.1691 174.797 29.5625 175.209 29.1501C175.622 28.7376 176.229 28.5193 177.006 28.5193C177.784 28.5193 178.391 28.7255 178.803 29.1501C179.216 29.5747 179.435 30.1812 179.435 30.9818V51.2037H190.423C191.103 51.2037 191.625 51.3857 192.002 51.7374C192.366 52.0892 192.548 52.5987 192.548 53.2538C192.548 53.9088 192.366 54.4183 192.002 54.7822C191.638 55.1462 191.116 55.3281 190.423 55.3281H177.043H177.055Z" fill="white"/>
<path d="M214.016 55.7042C211.442 55.7042 209.183 55.134 207.253 53.9937C205.322 52.8535 203.816 51.2643 202.76 49.2021C201.704 47.1399 201.169 44.7259 201.169 41.948C201.169 39.8494 201.473 37.9691 202.08 36.2829C202.687 34.6089 203.549 33.1653 204.679 31.9644C205.808 30.7635 207.155 29.8415 208.734 29.1986C210.312 28.5557 212.073 28.2281 214.028 28.2281C216.626 28.2281 218.897 28.7862 220.815 29.9143C222.734 31.0425 224.227 32.6195 225.284 34.6695C226.34 36.7196 226.874 39.1215 226.874 41.8994C226.874 43.9981 226.571 45.8904 225.964 47.5766C225.356 49.2749 224.494 50.7185 223.365 51.9315C222.236 53.1446 220.888 54.0665 219.31 54.7095C217.731 55.3524 215.971 55.6799 214.028 55.6799L214.016 55.7042ZM214.016 51.5434C215.655 51.5434 217.051 51.1673 218.205 50.4031C219.358 49.6388 220.232 48.5471 220.864 47.1035C221.483 45.66 221.787 43.9495 221.787 41.948C221.787 38.9153 221.107 36.5741 219.759 34.9C218.411 33.2381 216.493 32.4011 214.016 32.4011C212.401 32.4011 211.005 32.7772 209.851 33.5171C208.685 34.2571 207.799 35.3489 207.18 36.7682C206.561 38.1996 206.257 39.9221 206.257 41.9358C206.257 44.9443 206.937 47.2855 208.309 48.9838C209.669 50.6699 211.587 51.5191 214.028 51.5191L214.016 51.5434Z" fill="white"/>
<path d="M241.639 55.6314C240.91 55.6314 240.34 55.4252 239.951 55.0248C239.562 54.6245 239.368 54.0423 239.368 53.278V30.7392C239.368 29.9507 239.562 29.3563 239.951 28.9438C240.34 28.5314 240.85 28.3252 241.481 28.3252C242.064 28.3252 242.501 28.4344 242.792 28.6406C243.084 28.8589 243.436 29.2107 243.836 29.7202L258.358 48.5471H257.375V30.63C257.375 29.9022 257.569 29.332 257.958 28.9196C258.346 28.5193 258.917 28.313 259.645 28.313C260.374 28.313 260.932 28.5193 261.309 28.9196C261.685 29.3199 261.88 29.89 261.88 30.63V53.3508C261.88 54.0544 261.697 54.6124 261.345 55.0127C260.993 55.413 260.507 55.6193 259.9 55.6193C259.293 55.6193 258.856 55.5101 258.516 55.2796C258.176 55.0491 257.8 54.6852 257.399 54.1757L242.914 35.3489H243.861V53.2659C243.861 54.018 243.666 54.6003 243.29 55.0127C242.914 55.413 242.355 55.6193 241.627 55.6193L241.639 55.6314Z" fill="white"/>
<path d="M277.883 55.3281C277.045 55.3281 276.413 55.1098 275.964 54.6609C275.515 54.2121 275.296 53.5813 275.296 52.7443V31.2002C275.296 30.3632 275.515 29.7324 275.964 29.2835C276.413 28.8347 277.045 28.6163 277.883 28.6163H291.421C292.052 28.6163 292.538 28.7862 292.878 29.1137C293.218 29.4412 293.388 29.9143 293.388 30.5209C293.388 31.1274 293.218 31.6369 292.878 31.9765C292.538 32.3162 292.052 32.486 291.421 32.486H279.971V39.8372H290.583C291.239 39.8372 291.737 40.0071 292.065 40.3346C292.392 40.6621 292.562 41.1473 292.562 41.7781C292.562 42.4089 292.392 42.8942 292.065 43.2217C291.737 43.5492 291.239 43.7191 290.583 43.7191H279.971V51.4827H291.421C292.052 51.4827 292.538 51.6525 292.878 51.9801C293.218 52.3076 293.388 52.7928 293.388 53.4236C293.388 54.0544 293.218 54.5396 292.878 54.8672C292.538 55.1947 292.052 55.3645 291.421 55.3645H277.883V55.3281Z" fill="white"/>
<path d="M317.915 55.7042C315.135 55.7042 312.755 55.1462 310.776 54.018C308.796 52.8899 307.267 51.3007 306.21 49.2507C305.154 47.2006 304.62 44.7623 304.62 41.9601C304.62 39.8615 304.923 37.9812 305.53 36.2951C306.137 34.621 307.012 33.1775 308.141 31.9766C309.282 30.7756 310.679 29.8537 312.33 29.2108C313.981 28.5678 315.851 28.2403 317.915 28.2403C319.299 28.2403 320.671 28.4223 322.007 28.774C323.343 29.1258 324.52 29.6353 325.528 30.2904C326.062 30.6179 326.415 31.0182 326.585 31.4792C326.767 31.9523 326.803 32.4011 326.694 32.8378C326.597 33.2745 326.39 33.6506 326.062 33.9539C325.747 34.2571 325.358 34.427 324.885 34.4633C324.411 34.4997 323.901 34.342 323.355 33.9902C322.566 33.4808 321.728 33.1168 320.817 32.8864C319.906 32.6559 318.984 32.5467 318.049 32.5467C316.252 32.5467 314.734 32.9106 313.495 33.6506C312.257 34.3784 311.322 35.4459 310.691 36.8288C310.059 38.2239 309.744 39.9222 309.744 41.9359C309.744 43.9495 310.059 45.6357 310.691 47.0429C311.322 48.4622 312.257 49.5297 313.495 50.2575C314.734 50.9854 316.252 51.3614 318.049 51.3614C319.008 51.3614 319.955 51.2401 320.89 50.9975C321.825 50.7549 322.711 50.3909 323.537 49.8815C324.095 49.5539 324.593 49.4084 325.03 49.4448C325.468 49.4811 325.844 49.6388 326.147 49.9179C326.451 50.1969 326.657 50.5486 326.755 50.9611C326.852 51.3735 326.827 51.8102 326.682 52.2469C326.536 52.6837 326.22 53.0718 325.771 53.3994C324.763 54.1272 323.549 54.6973 322.153 55.0855C320.744 55.4737 319.324 55.6678 317.891 55.6678L317.915 55.7042Z" fill="white"/>
<path d="M339.625 55.3281C338.994 55.3281 338.484 55.2068 338.095 54.9521C337.707 54.6973 337.44 54.3577 337.294 53.9088C337.148 53.4721 337.148 52.9748 337.294 52.4289C337.427 51.883 337.719 51.325 338.144 50.7427L352.629 31.1274V32.6801H339.249C338.544 32.6801 337.998 32.4982 337.634 32.1464C337.27 31.7946 337.087 31.2851 337.087 30.63C337.087 29.975 337.27 29.4776 337.634 29.138C337.998 28.7983 338.532 28.6285 339.249 28.6285H354.936C355.568 28.6285 356.078 28.7498 356.466 29.0045C356.855 29.2593 357.122 29.5989 357.267 30.0235C357.401 30.4481 357.401 30.9454 357.267 31.5035C357.134 32.0615 356.843 32.6316 356.418 33.2018L341.932 52.7807V51.2644H355.883C356.588 51.2644 357.134 51.4342 357.498 51.7738C357.862 52.1135 358.045 52.6109 358.045 53.2659C358.045 53.921 357.862 54.4305 357.498 54.7823C357.134 55.1341 356.588 55.316 355.883 55.316H339.625V55.3281Z" fill="white"/>
<path d="M371.316 55.6314C370.587 55.6314 370.017 55.4252 369.628 55.0248C369.24 54.6245 369.045 54.0423 369.045 53.278V30.7392C369.045 29.9507 369.24 29.3563 369.628 28.9438C370.017 28.5314 370.527 28.3252 371.158 28.3252C371.741 28.3252 372.178 28.4344 372.469 28.6406C372.761 28.8589 373.113 29.2107 373.514 29.7202L388.036 48.5471H387.052V30.63C387.052 29.9022 387.246 29.332 387.635 28.9196C388.023 28.5193 388.594 28.313 389.323 28.313C390.051 28.313 390.61 28.5193 390.986 28.9196C391.362 29.3199 391.557 29.89 391.557 30.63V53.3508C391.557 54.0544 391.375 54.6124 391.023 55.0127C390.67 55.413 390.185 55.6193 389.578 55.6193C388.971 55.6193 388.533 55.5101 388.193 55.2796C387.853 55.0491 387.477 54.6852 387.076 54.1757L372.591 35.3489H373.538V53.2659C373.538 54.018 373.344 54.6003 372.967 55.0127C372.591 55.413 372.032 55.6193 371.304 55.6193L371.316 55.6314Z" fill="white"/>
<path d="M413.776 55.6314C412.987 55.6314 412.392 55.4131 411.979 54.9642C411.566 54.5275 411.348 53.8967 411.348 53.0961V41.5841L412.368 44.4954L403.237 31.6612C402.909 31.2002 402.763 30.715 402.8 30.2055C402.836 29.696 403.043 29.2471 403.431 28.8832C403.82 28.5193 404.342 28.3373 405.022 28.3373C405.532 28.3373 405.993 28.4586 406.406 28.7134C406.819 28.9681 407.22 29.3563 407.596 29.8901L414.383 39.5097H413.327L420.151 29.8901C420.552 29.3321 420.952 28.9317 421.329 28.7013C421.705 28.4586 422.179 28.3373 422.737 28.3373C423.393 28.3373 423.903 28.5072 424.267 28.8468C424.631 29.1865 424.826 29.6111 424.838 30.1206C424.838 30.63 424.668 31.1517 424.291 31.7097L415.233 44.5076L416.217 41.5962V53.1082C416.217 54.7944 415.403 55.6435 413.788 55.6435L413.776 55.6314Z" fill="white"/>
<path d="M145.364 95.6627C144.636 95.6627 144.065 95.4565 143.677 95.0562C143.288 94.6558 143.094 94.0736 143.094 93.3093V70.7705C143.094 69.982 143.288 69.3876 143.677 68.9752C144.065 68.5627 144.575 68.3565 145.206 68.3565C145.789 68.3565 146.226 68.4657 146.518 68.6719C146.809 68.8902 147.161 69.242 147.562 69.7515L162.084 88.5784H161.1V70.6613C161.1 69.9335 161.295 69.3633 161.683 68.9509C162.072 68.5506 162.642 68.3444 163.371 68.3444C164.099 68.3444 164.658 68.5506 165.034 68.9509C165.411 69.3512 165.605 69.9214 165.605 70.6613V93.3821C165.605 94.0857 165.423 94.6437 165.071 95.044C164.719 95.4443 164.233 95.6506 163.626 95.6506C163.019 95.6506 162.582 95.5414 162.242 95.3109C161.902 95.0804 161.525 94.7165 161.125 94.207L146.639 75.3802H147.586V93.2972C147.586 94.0493 147.392 94.6316 147.016 95.044C146.639 95.4443 146.081 95.6506 145.352 95.6506L145.364 95.6627Z" fill="white"/>
<path d="M191.006 95.7355C188.432 95.7355 186.174 95.1653 184.243 94.0251C182.313 92.8848 180.807 91.2957 179.751 89.2334C178.694 87.1712 178.16 84.7572 178.16 81.9793C178.16 79.8807 178.464 78.0004 179.071 76.3142C179.678 74.6402 180.54 73.1967 181.669 71.9957C182.798 70.7948 184.146 69.8728 185.725 69.2299C187.303 68.587 189.064 68.2595 191.019 68.2595C193.617 68.2595 195.888 68.8175 197.806 69.9456C199.724 71.0738 201.218 72.6508 202.274 74.7009C203.331 76.751 203.865 79.1528 203.865 81.9308C203.865 84.0294 203.561 85.9218 202.954 87.6079C202.347 89.3062 201.485 90.7498 200.356 91.9628C199.227 93.1759 197.879 94.0978 196.3 94.7408C194.722 95.3837 192.961 95.7112 191.019 95.7112L191.006 95.7355ZM191.006 91.5747C192.646 91.5747 194.042 91.1986 195.195 90.4344C196.349 89.6701 197.223 88.5784 197.855 87.1348C198.474 85.6913 198.777 83.9808 198.777 81.9793C198.777 78.9466 198.097 76.6054 196.75 74.9313C195.402 73.2694 193.483 72.4324 191.006 72.4324C189.392 72.4324 187.995 72.8085 186.842 73.5484C185.676 74.2884 184.79 75.3802 184.17 76.7995C183.551 78.2309 183.248 79.9535 183.248 81.9671C183.248 84.9756 183.928 87.3168 185.3 89.0151C186.66 90.7012 188.578 91.5504 191.019 91.5504L191.006 91.5747Z" fill="white"/>
<path d="M225.077 95.6627C224.397 95.6627 223.851 95.4928 223.426 95.1653C223.001 94.8378 222.673 94.3162 222.418 93.6126L214.502 71.2315C214.222 70.4187 214.283 69.7394 214.672 69.1814C215.06 68.6233 215.728 68.3443 216.663 68.3443C217.343 68.3443 217.877 68.502 218.253 68.8174C218.63 69.1328 218.933 69.6302 219.164 70.3095L225.988 90.5314H224.47L231.598 70.3459C231.852 69.6666 232.168 69.1571 232.545 68.8296C232.921 68.502 233.419 68.3322 234.026 68.3322C234.633 68.3322 235.107 68.4899 235.471 68.8296C235.823 69.1571 236.126 69.6787 236.381 70.3823L243.278 90.5314H241.955L248.888 70.3095C249.118 69.6545 249.422 69.1571 249.798 68.8296C250.175 68.502 250.697 68.3322 251.353 68.3322C252.166 68.3322 252.761 68.6112 253.137 69.1692C253.514 69.7272 253.562 70.4066 253.283 71.2193L245.282 93.6369C245.027 94.3162 244.699 94.8257 244.298 95.1532C243.897 95.4807 243.351 95.6505 242.671 95.6505C241.991 95.6505 241.445 95.4807 241.044 95.1532C240.643 94.8257 240.316 94.304 240.061 93.6005L233.467 74.8221H234.342L227.676 93.649C227.421 94.3283 227.105 94.8378 226.704 95.1653C226.316 95.4928 225.781 95.6627 225.089 95.6627H225.077Z" fill="white"/>
<path d="M274.435 95.6627C273.645 95.6627 273.05 95.4444 272.637 94.9955C272.225 94.5588 272.006 93.928 272.006 93.1274V81.6154L273.026 84.5267L263.895 71.6925C263.567 71.2315 263.422 70.7463 263.458 70.2368C263.495 69.7273 263.701 69.2785 264.089 68.9145C264.478 68.5506 265 68.3687 265.68 68.3687C266.19 68.3687 266.651 68.49 267.064 68.7447C267.477 68.9994 267.878 69.3876 268.254 69.9214L275.042 79.541H273.985L280.809 69.9214C281.21 69.3634 281.61 68.9631 281.987 68.7326C282.363 68.49 282.837 68.3687 283.395 68.3687C284.051 68.3687 284.561 68.5385 284.925 68.8781C285.29 69.2178 285.484 69.6424 285.496 70.1519C285.496 70.6614 285.326 71.183 284.95 71.741L275.892 84.5389L276.875 81.6275V93.1395C276.875 94.8257 276.062 95.6749 274.447 95.6749L274.435 95.6627Z" fill="white"/>
<path d="M326.475 95.7355C323.901 95.7355 321.643 95.1653 319.712 94.0251C317.781 92.8848 316.276 91.2957 315.22 89.2334C314.163 87.1712 313.629 84.7572 313.629 81.9793C313.629 79.8807 313.932 78.0004 314.54 76.3142C315.147 74.6402 316.009 73.1967 317.138 71.9957C318.267 70.7948 319.615 69.8728 321.193 69.2299C322.772 68.587 324.532 68.2595 326.487 68.2595C329.086 68.2595 331.356 68.8175 333.275 69.9456C335.193 71.0738 336.687 72.6508 337.743 74.7009C338.799 76.751 339.334 79.1528 339.334 81.9308C339.334 84.0294 339.03 85.9218 338.423 87.6079C337.816 89.3062 336.954 90.7498 335.825 91.9628C334.695 93.1759 333.348 94.0978 331.769 94.7408C330.191 95.3837 328.43 95.7112 326.487 95.7112L326.475 95.7355ZM326.475 91.5747C328.114 91.5747 329.511 91.1986 330.664 90.4344C331.818 89.6701 332.692 88.5784 333.323 87.1348C333.943 85.6913 334.246 83.9808 334.246 81.9793C334.246 78.9466 333.566 76.6054 332.218 74.9313C330.871 73.2694 328.952 72.4324 326.475 72.4324C324.86 72.4324 323.464 72.8085 322.31 73.5484C321.145 74.2884 320.258 75.3802 319.639 76.7995C319.02 78.2309 318.716 79.9535 318.716 81.9671C318.716 84.9756 319.396 87.3168 320.768 89.0151C322.128 90.7012 324.047 91.5504 326.487 91.5504L326.475 91.5747Z" fill="white"/>
<path d="M359.076 95.6627C358.287 95.6627 357.692 95.4443 357.279 94.9955C356.867 94.5588 356.648 93.9401 356.648 93.1638V72.7114H349.254C348.598 72.7114 348.088 72.5294 347.724 72.1655C347.359 71.8016 347.177 71.3042 347.177 70.6734C347.177 70.0426 347.359 69.521 347.724 69.1814C348.088 68.8417 348.598 68.6719 349.254 68.6719H368.887C369.543 68.6719 370.053 68.8417 370.417 69.1814C370.781 69.521 370.964 70.0184 370.964 70.6734C370.964 71.3285 370.781 71.8016 370.417 72.1655C370.053 72.5294 369.543 72.7114 368.887 72.7114H361.493V93.1638C361.493 93.9523 361.286 94.5588 360.886 94.9955C360.485 95.4322 359.878 95.6627 359.064 95.6627H359.076Z" fill="white"/>
<path d="M391.678 95.7355C389.104 95.7355 386.845 95.1653 384.915 94.0251C382.984 92.8848 381.479 91.2957 380.422 89.2334C379.366 87.1712 378.832 84.7572 378.832 81.9793C378.832 79.8807 379.135 78.0004 379.742 76.3142C380.349 74.6402 381.211 73.1967 382.341 71.9957C383.47 70.7948 384.818 69.8728 386.396 69.2299C387.975 68.587 389.735 68.2595 391.69 68.2595C394.288 68.2595 396.559 68.8175 398.477 69.9456C400.396 71.0738 401.889 72.6508 402.946 74.7009C404.002 76.751 404.536 79.1528 404.536 81.9308C404.536 84.0294 404.233 85.9218 403.626 87.6079C403.019 89.3062 402.156 90.7498 401.027 91.9628C399.898 93.1759 398.55 94.0978 396.972 94.7408C395.393 95.3837 393.633 95.7112 391.69 95.7112L391.678 95.7355ZM391.678 91.5747C393.317 91.5747 394.713 91.1986 395.867 90.4344C397.02 89.6701 397.895 88.5784 398.526 87.1348C399.145 85.6913 399.449 83.9808 399.449 81.9793C399.449 78.9466 398.769 76.6054 397.421 74.9313C396.073 73.2694 394.155 72.4324 391.678 72.4324C390.063 72.4324 388.667 72.8085 387.513 73.5484C386.347 74.2884 385.461 75.3802 384.842 76.7995C384.223 78.2309 383.919 79.9535 383.919 81.9671C383.919 84.9756 384.599 87.3168 385.971 89.0151C387.331 90.7012 389.249 91.5504 391.69 91.5504L391.678 91.5747Z" fill="white"/>
<path d="M419.459 95.6627C418.67 95.6627 418.075 95.4444 417.662 94.9955C417.249 94.5588 417.043 93.9402 417.043 93.1638V70.819C417.043 70.0063 417.249 69.3997 417.662 68.9873C418.075 68.5749 418.682 68.3686 419.459 68.3686C420.236 68.3686 420.843 68.5749 421.256 68.9873C421.669 69.3997 421.888 70.0184 421.888 70.819V80.4751H421.96L432.84 69.5696C433.24 69.1693 433.653 68.866 434.054 68.6598C434.455 68.4536 434.916 68.3565 435.414 68.3565C436.142 68.3565 436.677 68.5506 436.992 68.9267C437.308 69.3027 437.429 69.7515 437.369 70.2489C437.308 70.7584 437.053 71.2194 436.628 71.6561L425.555 82.5979L425.591 80.4023L437.15 92.1448C437.684 92.6543 437.964 93.1759 437.988 93.7339C438.012 94.2919 437.842 94.7529 437.478 95.1168C437.114 95.4808 436.567 95.6627 435.863 95.6627C435.256 95.6627 434.77 95.5414 434.406 95.2867C434.042 95.0319 433.617 94.668 433.131 94.1828L421.948 83.0104H421.876V93.1638C421.876 93.9523 421.669 94.5588 421.268 94.9955C420.868 95.4322 420.261 95.6627 419.447 95.6627H419.459Z" fill="white"/>
</g>
<defs>
<clipPath id="clip0_524_180">
<rect width="438" height="124" fill="white"/>
</clipPath>
</defs>
</svg>
