<svg width="269" height="269" viewBox="0 0 269 269" fill="none" xmlns="http://www.w3.org/2000/svg">
<path d="M158.764 73.8081C161.088 74.7957 163.789 73.6919 164.776 71.3681L178.631 38.6903C179.619 36.3666 178.515 33.6652 176.191 32.6776C173.868 31.69 171.166 32.7938 170.179 35.1176L156.324 67.7954C155.337 70.1191 156.44 72.8205 158.764 73.8081Z" fill="#FF8A00"/>
<path d="M102.938 71.3101C103.897 73.6629 106.569 74.7957 108.922 73.8372C111.274 72.8786 112.407 70.2063 111.449 67.8535L98.1457 34.9433C97.1871 32.5905 94.5149 31.4577 92.1622 32.4163C89.8095 33.3748 88.6767 36.0471 89.6352 38.3999L102.938 71.3101Z" fill="#FF8A00"/>
<path d="M134.104 0C60.1538 0 0 60.1562 0 134.11C0 208.063 60.1538 268.219 134.104 268.219C208.055 268.219 268.209 208.063 268.209 134.11C268.209 60.1562 208.055 0 134.104 0ZM134.104 10.8926C202.043 10.8926 257.317 66.1689 257.317 134.11C257.317 158.654 250.055 181.543 237.653 200.772C218.018 193.772 193.154 188.95 166.026 186.83C166.113 186.336 166.171 185.813 166.171 185.261V130.508C166.171 127.603 164.719 124.96 162.308 123.42L138.694 106.225C135.963 104.453 132.304 104.424 129.486 106.225L105.93 123.391C103.49 124.96 102.038 127.632 102.038 130.508V185.261C102.038 185.784 102.096 186.278 102.183 186.743C75.0543 188.834 50.133 193.598 30.4109 200.511C18.0665 181.34 10.8922 158.538 10.8922 134.081C10.8922 66.1399 66.1663 10.8636 134.104 10.8636V10.8926ZM110.519 185.958C110.142 185.958 109.822 185.639 109.822 185.261V130.508C109.822 130.275 109.938 130.043 110.171 129.898L133.727 112.76C133.727 112.76 134.017 112.644 134.104 112.644C134.192 112.644 134.337 112.644 134.453 112.731L158.067 129.927C158.271 130.043 158.387 130.275 158.387 130.508V185.261C158.387 185.639 158.067 185.958 157.69 185.958H151.503C145.636 185.697 139.71 185.581 133.698 185.581C127.685 185.581 121.789 185.726 115.951 185.958H110.519ZM61.2866 233.421C83.3324 228.686 109.067 226.072 135.847 226.072C162.627 226.072 186.329 228.454 207.735 232.84C187.171 248.206 161.698 257.327 134.104 257.327C106.511 257.327 81.6767 248.438 61.2576 233.421H61.2866ZM216.885 225.317C193.213 219.798 165.125 216.748 135.847 216.748C106.569 216.748 76.3614 220.03 52.1081 225.985C46.1828 220.699 40.7803 214.86 35.9877 208.528C61.9256 199.843 96.8387 194.934 133.727 194.934C170.615 194.934 206.109 199.93 232.105 208.76C227.545 214.744 222.462 220.292 216.914 225.346L216.885 225.317Z" fill="#FF8A00"/>
<path d="M129.98 135.882H119.668V146.193H129.98V135.882Z" fill="#FF8A00"/>
<path d="M148.54 135.882H138.229V146.193H148.54V135.882Z" fill="#FF8A00"/>
<path d="M129.98 154.442H119.668V164.754H129.98V154.442Z" fill="#FF8A00"/>
<path d="M148.54 154.442H138.229V164.754H148.54V154.442Z" fill="#FF8A00"/>
<path d="M134.366 81.2444C134.366 81.2444 134.192 81.2444 134.104 81.2444C134.017 81.2444 133.93 81.2444 133.843 81.2444C104.536 81.2444 80.6602 105.092 80.6602 134.429C80.6602 142.359 82.3739 149.998 85.7432 157.115C86.4403 158.596 87.9216 159.468 89.461 159.468C90.0419 159.468 90.6519 159.352 91.2038 159.061C93.266 158.103 94.1374 155.634 93.1499 153.6C90.3034 147.588 88.8801 141.139 88.8801 134.429C88.8801 109.623 109.038 89.4647 133.872 89.4647C133.959 89.4647 134.046 89.4647 134.133 89.4647C134.221 89.4647 134.308 89.4647 134.395 89.4647C159.2 89.4647 179.358 109.623 179.358 134.429C179.358 141.139 177.905 147.588 175.088 153.6C174.129 155.663 175.001 158.103 177.034 159.061C177.615 159.323 178.196 159.468 178.777 159.468C180.316 159.468 181.798 158.596 182.495 157.115C185.864 149.998 187.578 142.359 187.578 134.429C187.578 105.121 163.731 81.2444 134.395 81.2444H134.366Z" fill="#FF8A00"/>
<path d="M194.636 158.625C193.649 160.949 194.752 163.65 197.076 164.638L229.752 178.493C232.076 179.481 234.777 178.377 235.765 176.053C236.752 173.73 235.649 171.028 233.325 170.041L200.649 156.185C198.325 155.198 195.624 156.301 194.636 158.625Z" fill="#FF8A00"/>
<path d="M196.698 102.623C194.374 103.61 193.27 106.312 194.229 108.636C195.187 110.959 197.918 112.063 200.241 111.105L232.976 97.3653C235.3 96.3777 236.403 93.6764 235.445 91.3526C234.457 89.0289 231.756 87.9251 229.432 88.8836L196.698 102.623Z" fill="#FF8A00"/>
<path d="M73.9793 159.613C74.9669 161.936 73.8631 164.638 71.5394 165.625L38.8629 179.481C36.5393 180.468 33.838 179.365 32.8504 177.041C31.8629 174.717 32.9666 172.016 35.2903 171.028L67.9668 157.173C70.2905 156.185 72.9917 157.289 73.9793 159.613Z" fill="#FF8A00"/>
<path d="M71.0749 103.552C73.4276 104.511 74.5604 107.183 73.6019 109.536C72.6434 111.888 69.9712 113.021 67.6185 112.063L34.7096 98.7593C32.3569 97.8007 31.2241 95.1284 32.1826 92.7756C33.1411 90.4228 35.8133 89.29 38.1661 90.2485L71.0749 103.552Z" fill="#FF8A00"/>
</svg>
