<?xml version="1.0" encoding="UTF-8"?>
<svg id="Warstwa_2" data-name="Warstwa 2" xmlns="http://www.w3.org/2000/svg" viewBox="0 0 1494.59 1494.59">
  <defs>
    <style>
      .cls-1 {
        fill: #646464;
        stroke-width: .6px;
      }

      .cls-1, .cls-2 {
        stroke: #646464;
      }

      .cls-1, .cls-2, .cls-3, .cls-4 {
        stroke-miterlimit: 10;
      }

      .cls-5 {
        fill: #d3d3d3;
      }

      .cls-2 {
        stroke-width: .8px;
      }

      .cls-2, .cls-4 {
        fill: none;
      }

      .cls-3 {
        stroke: #000;
        stroke-width: .2px;
      }

      .cls-4 {
        stroke: #515151;
        stroke-width: .4px;
      }
    </style>
  </defs>
  <g id="Warstwa_1-2" data-name="Warstwa 1">
    <g>
      <path class="cls-5" d="M849.25,497.93c9.63,4.08,20.84-.45,24.92-10.08l57.33-135.17c4.08-9.62-.45-20.84-10.08-24.92-9.63-4.08-20.84.45-24.92,10.08l-57.33,135.17c-4.08,9.62.45,20.84,10.08,24.92Z"/>
      <path class="cls-5" d="M618.32,487.55c3.92,9.69,15.06,14.42,24.75,10.5,9.69-3.92,14.41-15.06,10.5-24.75l-55.05-136.12c-3.92-9.69-15.06-14.42-24.75-10.5-9.69,3.92-14.42,15.06-10.5,24.75l55.05,136.12Z"/>
      <path class="cls-5" d="M747.3,192.68c-305.82,0-554.61,248.8-554.61,554.61s248.8,554.61,554.61,554.61,554.61-248.8,554.61-554.61S1053.11,192.68,747.3,192.68ZM747.3,237.76c280.96,0,509.54,228.58,509.54,509.54,0,101.54-29.97,196.15-81.36,275.69-81.22-28.94-184-48.86-296.22-57.7.39-2.09.62-4.24.62-6.44v-226.48c0-11.97-6.01-22.99-15.93-29.37l-97.69-71.13c-11.33-7.29-26.44-7.4-38.08.1l-97.38,70.93c-10.07,6.48-16.08,17.5-16.08,29.47v226.48c0,2.11.22,4.17.58,6.18-112.19,8.62-215.22,28.32-296.8,56.99-51.01-79.34-80.74-173.59-80.74-274.71,0-280.96,228.58-509.54,509.54-509.54ZM649.76,961.68c-1.57,0-2.85-1.28-2.85-2.84v-226.48c0-.97.49-1.87,1.46-2.5l97.38-70.93c.59-.38,1.16-.46,1.54-.46s.96.08,1.39.35l97.69,71.13c.82.53,1.31,1.43,1.31,2.4v226.48c0,1.57-1.28,2.84-2.85,2.84h-25.63c-24.26-1.03-48.81-1.61-73.59-1.61s-49.21.58-73.43,1.61h-22.42ZM446.1,1157.95c91.12-19.63,197.6-30.36,308.39-30.36s208.75,9.88,297.29,28.02c-85.01,63.55-190.43,101.22-304.48,101.22s-216.76-36.79-301.2-98.89ZM1089.59,1124.42c-97.92-22.88-214.04-35.47-335.1-35.47s-246.04,13.62-346.32,38.21c-24.48-21.87-46.83-46.06-66.72-72.23,107.29-35.92,251.64-56.23,404.15-56.23s299.3,20.63,406.83,57.13c-18.87,24.71-39.87,47.71-62.85,68.59Z"/>
      <g>
        <rect class="cls-5" x="687.62" y="754.59" width="42.61" height="42.61"/>
        <rect class="cls-5" x="764.36" y="754.59" width="42.61" height="42.61"/>
        <rect class="cls-5" x="687.62" y="831.33" width="42.61" height="42.61"/>
        <rect class="cls-5" x="764.36" y="831.33" width="42.61" height="42.61"/>
      </g>
      <path class="cls-5" d="M748.39,528.71c-.39,0-.75.09-1.12.11-.38-.03-.74-.11-1.12-.11-121.25,0-219.89,98.64-219.89,219.89,0,32.8,7.05,64.37,20.97,93.82,2.9,6.13,9,9.72,15.36,9.72,2.43,0,4.9-.52,7.24-1.63,8.48-4.01,12.1-14.12,8.1-22.6-11.75-24.88-17.71-51.56-17.71-79.32,0-102.53,83.41-185.95,186.01-185.95.39,0,.75-.09,1.12-.11.38.03.74.11,1.12.11,102.53,0,185.95,83.41,185.95,185.95,0,27.75-5.96,54.44-17.71,79.32-4,8.48-.38,18.59,8.1,22.6,2.34,1.11,4.81,1.63,7.24,1.63,6.36,0,12.46-3.59,15.36-9.72,13.91-29.45,20.97-61.01,20.97-93.82,0-121.25-98.64-219.89-219.96-219.89Z"/>
      <g>
        <g>
          <path class="cls-5" d="M997.56,848.63c-4.08,9.63.45,20.84,10.08,24.92l135.17,57.33c9.62,4.08,20.84-.45,24.92-10.08,4.08-9.63-.45-20.84-10.08-24.92l-135.17-57.33c-9.62-4.08-20.84.45-24.92,10.08Z"/>
          <path class="cls-5" d="M1006.17,617.07c-9.64,4.05-14.21,15.25-10.17,24.89,4.05,9.64,15.25,14.21,24.89,10.17l135.37-56.85c9.64-4.05,14.21-15.25,10.17-24.88-4.05-9.64-15.25-14.21-24.88-10.17l-135.37,56.85Z"/>
        </g>
        <g>
          <path class="cls-5" d="M498.57,852.73c4.08,9.63-.45,20.84-10.08,24.92l-135.17,57.33c-9.62,4.08-20.84-.45-24.92-10.08-4.08-9.63.45-20.84,10.08-24.92l135.17-57.33c9.62-4.08,20.84.45,24.92,10.08Z"/>
          <path class="cls-5" d="M486.66,620.94c9.69,3.92,14.42,15.06,10.5,24.75-3.92,9.69-15.06,14.41-24.75,10.5l-136.12-55.05c-9.69-3.92-14.42-15.06-10.5-24.75,3.92-9.69,15.06-14.42,24.75-10.5l136.12,55.05Z"/>
        </g>
      </g>
    </g>
  </g>
  <g id="Lines">
    <g id="Lines_Group" data-name="Lines Group">
      <line class="cls-4" y1="873.95" x2="1494.59" y2="873.95"/>
      <line class="cls-4" y1="831.33" x2="1494.59" y2="831.33"/>
      <line class="cls-4" x1="764.36" x2="764.36" y2="1494.59"/>
      <line class="cls-4" x1="806.97" x2="806.97" y2="1494.59"/>
      <line class="cls-4" y1="797.21" x2="1494.59" y2="797.21"/>
      <line class="cls-4" x1="730.23" x2="730.23" y2="1494.59"/>
      <line class="cls-4" y1="754.59" x2="1494.59" y2="754.59"/>
      <line class="cls-4" x1="687.62" x2="687.62" y2="1494.59"/>
    </g>
  </g>
  <g id="Handles_Line_and_Shape_" data-name="Handles (Line and Shape)">
    <g id="HandlesGroup">
      <g id="LinesGroup">
        <line class="cls-2" x1="839.17" y1="473.01" x2="835.09" y2="482.63"/>
        <line class="cls-2" x1="896.5" y1="337.83" x2="900.58" y2="328.21"/>
        <line class="cls-2" x1="921.42" y1="327.76" x2="911.8" y2="323.67"/>
        <line class="cls-2" x1="921.42" y1="327.76" x2="931.05" y2="331.84"/>
        <line class="cls-2" x1="931.5" y1="352.68" x2="935.58" y2="343.05"/>
        <line class="cls-2" x1="874.17" y1="487.85" x2="870.09" y2="497.47"/>
        <line class="cls-2" x1="849.25" y1="497.93" x2="858.88" y2="502.01"/>
        <line class="cls-2" x1="849.25" y1="497.93" x2="839.63" y2="493.84"/>
        <line class="cls-2" x1="563.27" y1="351.43" x2="559.35" y2="341.74"/>
        <line class="cls-2" x1="573.77" y1="326.69" x2="564.07" y2="330.6"/>
        <line class="cls-2" x1="573.77" y1="326.69" x2="583.46" y2="322.77"/>
        <line class="cls-2" x1="598.51" y1="337.18" x2="594.59" y2="327.49"/>
        <line class="cls-2" x1="653.56" y1="473.3" x2="657.48" y2="482.99"/>
        <line class="cls-2" x1="643.06" y1="498.05" x2="652.76" y2="494.13"/>
        <line class="cls-2" x1="643.06" y1="498.05" x2="633.37" y2="501.97"/>
        <line class="cls-2" x1="618.32" y1="487.55" x2="622.24" y2="497.24"/>
        <line class="cls-2" x1="1301.91" y1="747.29" x2="1301.91" y2="441.48"/>
        <line class="cls-2" x1="1301.91" y1="747.29" x2="1301.91" y2="1053.11"/>
        <line class="cls-2" x1="747.3" y1="1301.91" x2="1053.11" y2="1301.91"/>
        <line class="cls-2" x1="747.3" y1="1301.91" x2="441.48" y2="1301.91"/>
        <line class="cls-2" x1="192.68" y1="747.29" x2="192.68" y2="1053.11"/>
        <line class="cls-2" x1="192.68" y1="747.29" x2="192.68" y2="441.48"/>
        <line class="cls-2" x1="747.3" y1="192.68" x2="441.48" y2="192.68"/>
        <line class="cls-2" x1="747.3" y1="192.68" x2="1053.11" y2="192.68"/>
        <line class="cls-2" x1="237.76" y1="747.29" x2="237.76" y2="466.33"/>
        <line class="cls-2" x1="237.76" y1="747.29" x2="237.76" y2="848.42"/>
        <line class="cls-2" x1="318.49" y1="1022.01" x2="267.49" y2="942.67"/>
        <line class="cls-2" x1="318.49" y1="1022.01" x2="400.07" y2="993.33"/>
        <line class="cls-2" x1="615.29" y1="965.01" x2="503.1" y2="973.63"/>
        <line class="cls-2" x1="615.29" y1="965.01" x2="614.94" y2="963.01"/>
        <line class="cls-2" x1="614.72" y1="958.84" x2="614.72" y2="960.95"/>
        <line class="cls-2" x1="614.72" y1="732.36" x2="614.72" y2="720.39"/>
        <line class="cls-2" x1="630.8" y1="702.89" x2="620.73" y2="709.38"/>
        <line class="cls-2" x1="728.18" y1="631.96" x2="739.81" y2="624.46"/>
        <line class="cls-2" x1="766.26" y1="631.86" x2="754.93" y2="624.56"/>
        <line class="cls-2" x1="863.95" y1="702.99" x2="873.86" y2="709.37"/>
        <line class="cls-2" x1="879.87" y1="732.36" x2="879.87" y2="720.39"/>
        <line class="cls-2" x1="879.87" y1="958.84" x2="879.87" y2="961.04"/>
        <line class="cls-2" x1="879.25" y1="965.28" x2="879.64" y2="963.19"/>
        <line class="cls-2" x1="879.25" y1="965.28" x2="991.48" y2="974.12"/>
        <line class="cls-2" x1="1175.47" y1="1022.98" x2="1094.25" y2="994.05"/>
        <line class="cls-2" x1="1175.47" y1="1022.98" x2="1226.86" y2="943.44"/>
        <line class="cls-2" x1="1256.84" y1="747.29" x2="1256.84" y2="848.83"/>
        <line class="cls-2" x1="1256.84" y1="747.29" x2="1256.84" y2="466.33"/>
        <line class="cls-2" x1="747.3" y1="237.76" x2="1028.26" y2="237.76"/>
        <line class="cls-2" x1="747.3" y1="237.76" x2="466.34" y2="237.76"/>
        <line class="cls-2" x1="672.18" y1="961.68" x2="696.4" y2="960.65"/>
        <line class="cls-2" x1="745.61" y1="960.07" x2="720.89" y2="960.07"/>
        <line class="cls-2" x1="745.61" y1="960.07" x2="770.39" y2="960.07"/>
        <line class="cls-2" x1="819.2" y1="961.68" x2="794.94" y2="960.65"/>
        <line class="cls-2" x1="844.83" y1="961.68" x2="846.4" y2="961.68"/>
        <line class="cls-2" x1="847.68" y1="958.84" x2="847.68" y2="960.4"/>
        <line class="cls-2" x1="847.68" y1="732.36" x2="847.68" y2="731.39"/>
        <line class="cls-2" x1="846.37" y1="729.96" x2="847.19" y2="730.49"/>
        <line class="cls-2" x1="748.68" y1="658.83" x2="748.25" y2="658.56"/>
        <line class="cls-2" x1="747.29" y1="658.48" x2="747.68" y2="658.48"/>
        <line class="cls-2" x1="747.29" y1="658.48" x2="746.91" y2="658.48"/>
        <line class="cls-2" x1="745.75" y1="658.94" x2="746.34" y2="658.56"/>
        <line class="cls-2" x1="648.37" y1="729.86" x2="647.4" y2="730.49"/>
        <line class="cls-2" x1="646.91" y1="732.36" x2="646.91" y2="731.38"/>
        <line class="cls-2" x1="646.91" y1="958.84" x2="646.91" y2="960.4"/>
        <line class="cls-2" x1="649.76" y1="961.68" x2="648.19" y2="961.68"/>
        <line class="cls-2" x1="747.3" y1="1256.83" x2="634.68" y2="1256.83"/>
        <line class="cls-2" x1="747.3" y1="1256.83" x2="861.35" y2="1256.83"/>
        <line class="cls-2" x1="1051.78" y1="1155.61" x2="966.77" y2="1219.16"/>
        <line class="cls-2" x1="1051.78" y1="1155.61" x2="963.23" y2="1137.47"/>
        <line class="cls-2" x1="754.49" y1="1127.59" x2="860.97" y2="1127.59"/>
        <line class="cls-2" x1="754.49" y1="1127.59" x2="643.69" y2="1127.59"/>
        <line class="cls-2" x1="446.1" y1="1157.95" x2="537.21" y2="1138.31"/>
        <line class="cls-2" x1="446.1" y1="1157.95" x2="530.53" y2="1220.05"/>
        <line class="cls-2" x1="1152.44" y1="1055.83" x2="1133.57" y2="1080.54"/>
        <line class="cls-2" x1="1152.44" y1="1055.83" x2="1044.91" y2="1019.34"/>
        <line class="cls-2" x1="745.61" y1="998.71" x2="899.63" y2="998.71"/>
        <line class="cls-2" x1="745.61" y1="998.71" x2="593.09" y2="998.71"/>
        <line class="cls-2" x1="341.45" y1="1054.94" x2="448.75" y2="1019.02"/>
        <line class="cls-2" x1="341.45" y1="1054.94" x2="361.34" y2="1081.11"/>
        <line class="cls-2" x1="408.17" y1="1127.17" x2="383.7" y2="1105.29"/>
        <line class="cls-2" x1="408.17" y1="1127.17" x2="508.45" y2="1102.57"/>
        <line class="cls-2" x1="754.49" y1="1088.95" x2="628.92" y2="1088.95"/>
        <line class="cls-2" x1="754.49" y1="1088.95" x2="875.55" y2="1088.95"/>
        <line class="cls-2" x1="1089.59" y1="1124.42" x2="991.66" y2="1101.54"/>
        <line class="cls-2" x1="1089.59" y1="1124.42" x2="1112.57" y2="1103.54"/>
        <line class="cls-2" x1="968.34" y1="748.6" x2="968.34" y2="627.35"/>
        <line class="cls-2" x1="968.34" y1="748.6" x2="968.34" y2="781.4"/>
        <line class="cls-2" x1="947.38" y1="842.42" x2="961.29" y2="812.97"/>
        <line class="cls-2" x1="947.38" y1="842.42" x2="944.48" y2="848.55"/>
        <line class="cls-2" x1="932.02" y1="852.14" x2="938.38" y2="852.14"/>
        <line class="cls-2" x1="932.02" y1="852.14" x2="929.59" y2="852.14"/>
        <line class="cls-2" x1="924.78" y1="850.51" x2="927.13" y2="851.62"/>
        <line class="cls-2" x1="924.78" y1="850.51" x2="916.31" y2="846.51"/>
        <line class="cls-2" x1="916.69" y1="827.91" x2="912.68" y2="836.39"/>
        <line class="cls-2" x1="916.69" y1="827.91" x2="928.44" y2="803.03"/>
        <line class="cls-2" x1="934.4" y1="748.6" x2="934.4" y2="776.35"/>
        <line class="cls-2" x1="934.4" y1="748.6" x2="934.4" y2="646.07"/>
        <line class="cls-2" x1="748.46" y1="562.65" x2="850.99" y2="562.65"/>
        <line class="cls-2" x1="748.46" y1="562.65" x2="748.07" y2="562.65"/>
        <line class="cls-2" x1="747.33" y1="562.54" x2="747.71" y2="562.57"/>
        <line class="cls-2" x1="747.33" y1="562.54" x2="746.95" y2="562.57"/>
        <line class="cls-2" x1="746.21" y1="562.65" x2="746.59" y2="562.65"/>
        <line class="cls-2" x1="746.21" y1="562.65" x2="643.61" y2="562.65"/>
        <line class="cls-2" x1="560.19" y1="748.6" x2="560.19" y2="646.07"/>
        <line class="cls-2" x1="560.19" y1="748.6" x2="560.19" y2="776.35"/>
        <line class="cls-2" x1="577.9" y1="827.91" x2="566.15" y2="803.03"/>
        <line class="cls-2" x1="577.9" y1="827.91" x2="581.91" y2="836.39"/>
        <line class="cls-2" x1="569.81" y1="850.51" x2="578.28" y2="846.51"/>
        <line class="cls-2" x1="569.81" y1="850.51" x2="567.47" y2="851.62"/>
        <line class="cls-2" x1="562.57" y1="852.14" x2="565" y2="852.14"/>
        <line class="cls-2" x1="562.57" y1="852.14" x2="556.21" y2="852.14"/>
        <line class="cls-2" x1="547.21" y1="842.42" x2="550.11" y2="848.55"/>
        <line class="cls-2" x1="547.21" y1="842.42" x2="533.3" y2="812.97"/>
        <line class="cls-2" x1="526.25" y1="748.6" x2="526.25" y2="781.4"/>
        <line class="cls-2" x1="526.25" y1="748.6" x2="526.25" y2="627.35"/>
        <line class="cls-2" x1="746.14" y1="528.71" x2="624.89" y2="528.71"/>
        <line class="cls-2" x1="746.14" y1="528.71" x2="746.52" y2="528.71"/>
        <line class="cls-2" x1="747.26" y1="528.82" x2="746.88" y2="528.8"/>
        <line class="cls-2" x1="747.26" y1="528.82" x2="747.64" y2="528.8"/>
        <line class="cls-2" x1="748.39" y1="528.71" x2="748" y2="528.71"/>
        <line class="cls-2" x1="748.39" y1="528.71" x2="869.7" y2="528.71"/>
        <line class="cls-2" x1="1022.48" y1="838.56" x2="1012.86" y2="834.48"/>
        <line class="cls-2" x1="1157.66" y1="895.88" x2="1167.28" y2="899.97"/>
        <line class="cls-2" x1="1167.73" y1="920.81" x2="1171.81" y2="911.18"/>
        <line class="cls-2" x1="1167.73" y1="920.81" x2="1163.65" y2="930.43"/>
        <line class="cls-2" x1="1142.81" y1="930.88" x2="1152.44" y2="934.97"/>
        <line class="cls-2" x1="1007.64" y1="873.56" x2="998.01" y2="869.47"/>
        <line class="cls-2" x1="997.56" y1="848.63" x2="993.48" y2="858.26"/>
        <line class="cls-2" x1="997.56" y1="848.63" x2="1001.64" y2="839.01"/>
        <line class="cls-2" x1="1141.55" y1="560.22" x2="1151.19" y2="556.17"/>
        <line class="cls-2" x1="1166.43" y1="570.39" x2="1162.38" y2="560.75"/>
        <line class="cls-2" x1="1166.43" y1="570.39" x2="1170.48" y2="580.02"/>
        <line class="cls-2" x1="1156.27" y1="595.27" x2="1165.91" y2="591.22"/>
        <line class="cls-2" x1="1020.89" y1="652.12" x2="1011.25" y2="656.17"/>
        <line class="cls-2" x1="996.01" y1="641.95" x2="1000.05" y2="651.59"/>
        <line class="cls-2" x1="996.01" y1="641.95" x2="991.96" y2="632.31"/>
        <line class="cls-2" x1="1006.17" y1="617.07" x2="996.53" y2="621.12"/>
        <line class="cls-2" x1="473.65" y1="842.66" x2="483.27" y2="838.58"/>
        <line class="cls-2" x1="338.48" y1="899.98" x2="328.85" y2="904.07"/>
        <line class="cls-2" x1="328.4" y1="924.91" x2="324.32" y2="915.28"/>
        <line class="cls-2" x1="328.4" y1="924.91" x2="332.48" y2="934.53"/>
        <line class="cls-2" x1="353.32" y1="934.98" x2="343.69" y2="939.07"/>
        <line class="cls-2" x1="488.49" y1="877.66" x2="498.12" y2="873.57"/>
        <line class="cls-2" x1="498.57" y1="852.73" x2="502.65" y2="862.36"/>
        <line class="cls-2" x1="498.57" y1="852.73" x2="494.49" y2="843.11"/>
        <line class="cls-2" x1="350.54" y1="565.89" x2="340.85" y2="561.98"/>
        <line class="cls-2" x1="325.79" y1="576.39" x2="329.71" y2="566.7"/>
        <line class="cls-2" x1="325.79" y1="576.39" x2="321.87" y2="586.08"/>
        <line class="cls-2" x1="336.29" y1="601.14" x2="326.59" y2="597.22"/>
        <line class="cls-2" x1="472.4" y1="656.18" x2="482.1" y2="660.1"/>
        <line class="cls-2" x1="497.15" y1="645.69" x2="493.23" y2="655.38"/>
        <line class="cls-2" x1="497.15" y1="645.69" x2="501.07" y2="636"/>
        <line class="cls-2" x1="486.66" y1="620.94" x2="496.35" y2="624.86"/>
      </g>
      <g id="ShapesGroup">
        <circle class="cls-1" cx="835.09" cy="482.63" r="5"/>
        <circle class="cls-1" cx="900.58" cy="328.21" r="5"/>
        <circle class="cls-1" cx="911.8" cy="323.67" r="5"/>
        <circle class="cls-1" cx="931.05" cy="331.84" r="5"/>
        <circle class="cls-1" cx="935.58" cy="343.05" r="5"/>
        <circle class="cls-1" cx="870.09" cy="497.47" r="5"/>
        <circle class="cls-1" cx="858.88" cy="502.01" r="5"/>
        <circle class="cls-1" cx="839.63" cy="493.84" r="5"/>
        <circle class="cls-1" cx="559.35" cy="341.74" r="5"/>
        <circle class="cls-1" cx="564.07" cy="330.6" r="5"/>
        <circle class="cls-1" cx="583.46" cy="322.77" r="5"/>
        <circle class="cls-1" cx="594.59" cy="327.49" r="5"/>
        <circle class="cls-1" cx="657.48" cy="482.99" r="5"/>
        <circle class="cls-1" cx="652.76" cy="494.13" r="5"/>
        <circle class="cls-1" cx="633.37" cy="501.97" r="5"/>
        <circle class="cls-1" cx="622.24" cy="497.24" r="5"/>
        <circle class="cls-1" cx="1301.91" cy="441.48" r="5"/>
        <circle class="cls-1" cx="1301.91" cy="1053.11" r="5"/>
        <circle class="cls-1" cx="1053.11" cy="1301.91" r="5"/>
        <circle class="cls-1" cx="441.48" cy="1301.91" r="5"/>
        <circle class="cls-1" cx="192.68" cy="1053.11" r="5"/>
        <circle class="cls-1" cx="192.68" cy="441.48" r="5"/>
        <circle class="cls-1" cx="441.48" cy="192.68" r="5"/>
        <circle class="cls-1" cx="1053.11" cy="192.68" r="5"/>
        <circle class="cls-1" cx="237.76" cy="466.33" r="5"/>
        <circle class="cls-1" cx="237.76" cy="848.42" r="5"/>
        <circle class="cls-1" cx="267.49" cy="942.67" r="5"/>
        <circle class="cls-1" cx="400.07" cy="993.33" r="5"/>
        <circle class="cls-1" cx="503.1" cy="973.63" r="5"/>
        <circle class="cls-1" cx="614.94" cy="963.01" r="5"/>
        <circle class="cls-1" cx="614.72" cy="960.95" r="5"/>
        <circle class="cls-1" cx="614.72" cy="720.39" r="5"/>
        <circle class="cls-1" cx="620.73" cy="709.38" r="5"/>
        <circle class="cls-1" cx="739.81" cy="624.46" r="5"/>
        <circle class="cls-1" cx="754.93" cy="624.56" r="5"/>
        <circle class="cls-1" cx="873.86" cy="709.37" r="5"/>
        <circle class="cls-1" cx="879.87" cy="720.39" r="5"/>
        <circle class="cls-1" cx="879.87" cy="961.04" r="5"/>
        <circle class="cls-1" cx="879.64" cy="963.19" r="5"/>
        <circle class="cls-1" cx="991.48" cy="974.12" r="5"/>
        <circle class="cls-1" cx="1094.25" cy="994.05" r="5"/>
        <circle class="cls-1" cx="1226.86" cy="943.44" r="5"/>
        <circle class="cls-1" cx="1256.84" cy="848.83" r="5"/>
        <circle class="cls-1" cx="1256.84" cy="466.33" r="5"/>
        <circle class="cls-1" cx="1028.26" cy="237.76" r="5"/>
        <circle class="cls-1" cx="466.34" cy="237.76" r="5"/>
        <circle class="cls-1" cx="696.4" cy="960.65" r="5"/>
        <circle class="cls-1" cx="720.89" cy="960.07" r="5"/>
        <circle class="cls-1" cx="770.39" cy="960.07" r="5"/>
        <circle class="cls-1" cx="794.94" cy="960.65" r="5"/>
        <circle class="cls-1" cx="846.4" cy="961.68" r="5"/>
        <circle class="cls-1" cx="847.68" cy="960.4" r="5"/>
        <circle class="cls-1" cx="847.68" cy="731.39" r="5"/>
        <circle class="cls-1" cx="847.19" cy="730.49" r="5"/>
        <circle class="cls-1" cx="748.25" cy="658.56" r="5"/>
        <circle class="cls-1" cx="747.68" cy="658.48" r="5"/>
        <circle class="cls-1" cx="746.91" cy="658.48" r="5"/>
        <circle class="cls-1" cx="746.34" cy="658.56" r="5"/>
        <circle class="cls-1" cx="647.4" cy="730.49" r="5"/>
        <circle class="cls-1" cx="646.91" cy="731.38" r="5"/>
        <circle class="cls-1" cx="646.91" cy="960.4" r="5"/>
        <circle class="cls-1" cx="648.19" cy="961.68" r="5"/>
        <circle class="cls-1" cx="634.68" cy="1256.83" r="5"/>
        <circle class="cls-1" cx="861.35" cy="1256.83" r="5"/>
        <circle class="cls-1" cx="966.77" cy="1219.16" r="5"/>
        <circle class="cls-1" cx="963.23" cy="1137.47" r="5"/>
        <circle class="cls-1" cx="860.97" cy="1127.59" r="5"/>
        <circle class="cls-1" cx="643.69" cy="1127.59" r="5"/>
        <circle class="cls-1" cx="537.21" cy="1138.31" r="5"/>
        <circle class="cls-1" cx="530.53" cy="1220.05" r="5"/>
        <circle class="cls-1" cx="1133.57" cy="1080.54" r="5"/>
        <circle class="cls-1" cx="1044.91" cy="1019.34" r="5"/>
        <circle class="cls-1" cx="899.63" cy="998.71" r="5"/>
        <circle class="cls-1" cx="593.09" cy="998.71" r="5"/>
        <circle class="cls-1" cx="448.75" cy="1019.02" r="5"/>
        <circle class="cls-1" cx="361.34" cy="1081.11" r="5"/>
        <circle class="cls-1" cx="383.7" cy="1105.29" r="5"/>
        <circle class="cls-1" cx="508.45" cy="1102.57" r="5"/>
        <circle class="cls-1" cx="628.92" cy="1088.95" r="5"/>
        <circle class="cls-1" cx="875.55" cy="1088.95" r="5"/>
        <circle class="cls-1" cx="991.66" cy="1101.54" r="5"/>
        <circle class="cls-1" cx="1112.57" cy="1103.54" r="5"/>
        <circle class="cls-1" cx="968.34" cy="627.35" r="5"/>
        <circle class="cls-1" cx="968.34" cy="781.4" r="5"/>
        <circle class="cls-1" cx="961.29" cy="812.97" r="5"/>
        <circle class="cls-1" cx="944.48" cy="848.55" r="5"/>
        <circle class="cls-1" cx="938.38" cy="852.14" r="5"/>
        <circle class="cls-1" cx="929.59" cy="852.14" r="5"/>
        <circle class="cls-1" cx="927.13" cy="851.62" r="5"/>
        <circle class="cls-1" cx="916.31" cy="846.51" r="5"/>
        <circle class="cls-1" cx="912.68" cy="836.39" r="5"/>
        <circle class="cls-1" cx="928.44" cy="803.03" r="5"/>
        <circle class="cls-1" cx="934.4" cy="776.35" r="5"/>
        <circle class="cls-1" cx="934.4" cy="646.07" r="5"/>
        <circle class="cls-1" cx="850.99" cy="562.65" r="5"/>
        <circle class="cls-1" cx="748.07" cy="562.65" r="5"/>
        <circle class="cls-1" cx="747.71" cy="562.57" r="5"/>
        <circle class="cls-1" cx="746.95" cy="562.57" r="5"/>
        <circle class="cls-1" cx="746.59" cy="562.65" r="5"/>
        <circle class="cls-1" cx="643.61" cy="562.65" r="5"/>
        <circle class="cls-1" cx="560.19" cy="646.07" r="5"/>
        <circle class="cls-1" cx="560.19" cy="776.35" r="5"/>
        <circle class="cls-1" cx="566.15" cy="803.03" r="5"/>
        <circle class="cls-1" cx="581.91" cy="836.39" r="5"/>
        <circle class="cls-1" cx="578.28" cy="846.51" r="5"/>
        <circle class="cls-1" cx="567.47" cy="851.62" r="5"/>
        <circle class="cls-1" cx="565" cy="852.14" r="5"/>
        <circle class="cls-1" cx="556.21" cy="852.14" r="5"/>
        <circle class="cls-1" cx="550.11" cy="848.55" r="5"/>
        <circle class="cls-1" cx="533.3" cy="812.97" r="5"/>
        <circle class="cls-1" cx="526.25" cy="781.4" r="5"/>
        <circle class="cls-1" cx="526.25" cy="627.35" r="5"/>
        <circle class="cls-1" cx="624.89" cy="528.71" r="5"/>
        <circle class="cls-1" cx="746.52" cy="528.71" r="5"/>
        <circle class="cls-1" cx="746.88" cy="528.8" r="5"/>
        <circle class="cls-1" cx="747.64" cy="528.8" r="5"/>
        <circle class="cls-1" cx="748" cy="528.71" r="5"/>
        <circle class="cls-1" cx="869.7" cy="528.71" r="5"/>
        <circle class="cls-1" cx="1012.86" cy="834.48" r="5"/>
        <circle class="cls-1" cx="1167.28" cy="899.97" r="5"/>
        <circle class="cls-1" cx="1171.81" cy="911.18" r="5"/>
        <circle class="cls-1" cx="1163.65" cy="930.43" r="5"/>
        <circle class="cls-1" cx="1152.44" cy="934.97" r="5"/>
        <circle class="cls-1" cx="998.01" cy="869.47" r="5"/>
        <circle class="cls-1" cx="993.48" cy="858.26" r="5"/>
        <circle class="cls-1" cx="1001.64" cy="839.01" r="5"/>
        <circle class="cls-1" cx="1151.19" cy="556.17" r="5"/>
        <circle class="cls-1" cx="1162.38" cy="560.75" r="5"/>
        <circle class="cls-1" cx="1170.48" cy="580.02" r="5"/>
        <circle class="cls-1" cx="1165.91" cy="591.22" r="5"/>
        <circle class="cls-1" cx="1011.25" cy="656.17" r="5"/>
        <circle class="cls-1" cx="1000.05" cy="651.59" r="5"/>
        <circle class="cls-1" cx="991.96" cy="632.31" r="5"/>
        <circle class="cls-1" cx="996.53" cy="621.12" r="5"/>
        <circle class="cls-1" cx="483.27" cy="838.58" r="5"/>
        <circle class="cls-1" cx="328.85" cy="904.07" r="5"/>
        <circle class="cls-1" cx="324.32" cy="915.28" r="5"/>
        <circle class="cls-1" cx="332.48" cy="934.53" r="5"/>
        <circle class="cls-1" cx="343.69" cy="939.07" r="5"/>
        <circle class="cls-1" cx="498.12" cy="873.57" r="5"/>
        <circle class="cls-1" cx="502.65" cy="862.36" r="5"/>
        <circle class="cls-1" cx="494.49" cy="843.11" r="5"/>
        <circle class="cls-1" cx="340.85" cy="561.98" r="5"/>
        <circle class="cls-1" cx="329.71" cy="566.7" r="5"/>
        <circle class="cls-1" cx="321.87" cy="586.08" r="5"/>
        <circle class="cls-1" cx="326.59" cy="597.22" r="5"/>
        <circle class="cls-1" cx="482.1" cy="660.1" r="5"/>
        <circle class="cls-1" cx="493.23" cy="655.38" r="5"/>
        <circle class="cls-1" cx="501.07" cy="636" r="5"/>
        <circle class="cls-1" cx="496.35" cy="624.86" r="5"/>
      </g>
    </g>
  </g>
  <g id="Anchor_Shapes" data-name="Anchor Shapes">
    <g id="AnchorGroup">
      <rect class="cls-3" x="834.17" y="468.01" width="10" height="10"/>
      <rect class="cls-3" x="891.5" y="332.83" width="10" height="10"/>
      <rect class="cls-3" x="916.42" y="322.76" width="10" height="10"/>
      <rect class="cls-3" x="926.5" y="347.68" width="10" height="10"/>
      <rect class="cls-3" x="869.17" y="482.85" width="10" height="10"/>
      <rect class="cls-3" x="844.25" y="492.93" width="10" height="10"/>
      <rect class="cls-3" x="558.27" y="346.43" width="10" height="10"/>
      <rect class="cls-3" x="568.77" y="321.69" width="10" height="10"/>
      <rect class="cls-3" x="593.51" y="332.18" width="10" height="10"/>
      <rect class="cls-3" x="648.56" y="468.3" width="10" height="10"/>
      <rect class="cls-3" x="638.06" y="493.05" width="10" height="10"/>
      <rect class="cls-3" x="613.32" y="482.55" width="10" height="10"/>
      <rect class="cls-3" x="1296.91" y="742.29" width="10" height="10"/>
      <rect class="cls-3" x="742.3" y="1296.91" width="10" height="10"/>
      <rect class="cls-3" x="187.68" y="742.29" width="10" height="10"/>
      <rect class="cls-3" x="742.3" y="187.68" width="10" height="10"/>
      <rect class="cls-3" x="232.76" y="742.29" width="10" height="10"/>
      <rect class="cls-3" x="313.49" y="1017.01" width="10" height="10"/>
      <rect class="cls-3" x="610.29" y="960.01" width="10" height="10"/>
      <rect class="cls-3" x="609.72" y="953.84" width="10" height="10"/>
      <rect class="cls-3" x="609.72" y="727.36" width="10" height="10"/>
      <rect class="cls-3" x="625.8" y="697.89" width="10" height="10"/>
      <rect class="cls-3" x="723.18" y="626.96" width="10" height="10"/>
      <rect class="cls-3" x="761.26" y="626.86" width="10" height="10"/>
      <rect class="cls-3" x="858.95" y="697.99" width="10" height="10"/>
      <rect class="cls-3" x="874.87" y="727.36" width="10" height="10"/>
      <rect class="cls-3" x="874.87" y="953.84" width="10" height="10"/>
      <rect class="cls-3" x="874.25" y="960.28" width="10" height="10"/>
      <rect class="cls-3" x="1170.47" y="1017.98" width="10" height="10"/>
      <rect class="cls-3" x="1251.84" y="742.29" width="10" height="10"/>
      <rect class="cls-3" x="742.3" y="232.76" width="10" height="10"/>
      <rect class="cls-3" x="667.18" y="956.68" width="10" height="10"/>
      <rect class="cls-3" x="740.61" y="955.07" width="10" height="10"/>
      <rect class="cls-3" x="814.2" y="956.68" width="10" height="10"/>
      <rect class="cls-3" x="839.83" y="956.68" width="10" height="10"/>
      <rect class="cls-3" x="842.68" y="953.84" width="10" height="10"/>
      <rect class="cls-3" x="842.68" y="727.36" width="10" height="10"/>
      <rect class="cls-3" x="841.37" y="724.96" width="10" height="10"/>
      <rect class="cls-3" x="743.68" y="653.83" width="10" height="10"/>
      <rect class="cls-3" x="742.29" y="653.48" width="10" height="10"/>
      <rect class="cls-3" x="740.75" y="653.94" width="10" height="10"/>
      <rect class="cls-3" x="643.37" y="724.86" width="10" height="10"/>
      <rect class="cls-3" x="641.91" y="727.36" width="10" height="10"/>
      <rect class="cls-3" x="641.91" y="953.84" width="10" height="10"/>
      <rect class="cls-3" x="644.76" y="956.68" width="10" height="10"/>
      <rect class="cls-3" x="742.3" y="1251.83" width="10" height="10"/>
      <rect class="cls-3" x="1046.78" y="1150.61" width="10" height="10"/>
      <rect class="cls-3" x="749.49" y="1122.59" width="10" height="10"/>
      <rect class="cls-3" x="441.1" y="1152.95" width="10" height="10"/>
      <rect class="cls-3" x="1147.44" y="1050.83" width="10" height="10"/>
      <rect class="cls-3" x="740.61" y="993.71" width="10" height="10"/>
      <rect class="cls-3" x="336.45" y="1049.94" width="10" height="10"/>
      <rect class="cls-3" x="403.17" y="1122.17" width="10" height="10"/>
      <rect class="cls-3" x="749.49" y="1083.95" width="10" height="10"/>
      <rect class="cls-3" x="1084.59" y="1119.42" width="10" height="10"/>
      <rect class="cls-3" x="682.62" y="749.59" width="10" height="10"/>
      <rect class="cls-3" x="725.23" y="749.59" width="10" height="10"/>
      <rect class="cls-3" x="725.23" y="792.21" width="10" height="10"/>
      <rect class="cls-3" x="682.62" y="792.21" width="10" height="10"/>
      <rect class="cls-3" x="801.97" y="792.21" width="10" height="10"/>
      <rect class="cls-3" x="759.36" y="792.21" width="10" height="10"/>
      <rect class="cls-3" x="759.36" y="749.59" width="10" height="10"/>
      <rect class="cls-3" x="801.97" y="749.59" width="10" height="10"/>
      <rect class="cls-3" x="682.62" y="826.33" width="10" height="10"/>
      <rect class="cls-3" x="725.23" y="826.33" width="10" height="10"/>
      <rect class="cls-3" x="725.23" y="868.95" width="10" height="10"/>
      <rect class="cls-3" x="682.62" y="868.95" width="10" height="10"/>
      <rect class="cls-3" x="801.97" y="868.95" width="10" height="10"/>
      <rect class="cls-3" x="759.36" y="868.95" width="10" height="10"/>
      <rect class="cls-3" x="759.36" y="826.33" width="10" height="10"/>
      <rect class="cls-3" x="801.97" y="826.33" width="10" height="10"/>
      <rect class="cls-3" x="963.34" y="743.6" width="10" height="10"/>
      <rect class="cls-3" x="942.38" y="837.42" width="10" height="10"/>
      <rect class="cls-3" x="927.02" y="847.14" width="10" height="10"/>
      <rect class="cls-3" x="919.78" y="845.51" width="10" height="10"/>
      <rect class="cls-3" x="911.69" y="822.91" width="10" height="10"/>
      <rect class="cls-3" x="929.4" y="743.6" width="10" height="10"/>
      <rect class="cls-3" x="743.46" y="557.65" width="10" height="10"/>
      <rect class="cls-3" x="742.33" y="557.54" width="10" height="10"/>
      <rect class="cls-3" x="741.21" y="557.65" width="10" height="10"/>
      <rect class="cls-3" x="555.19" y="743.6" width="10" height="10"/>
      <rect class="cls-3" x="572.9" y="822.91" width="10" height="10"/>
      <rect class="cls-3" x="564.81" y="845.51" width="10" height="10"/>
      <rect class="cls-3" x="557.57" y="847.14" width="10" height="10"/>
      <rect class="cls-3" x="542.21" y="837.42" width="10" height="10"/>
      <rect class="cls-3" x="521.25" y="743.6" width="10" height="10"/>
      <rect class="cls-3" x="741.14" y="523.71" width="10" height="10"/>
      <rect class="cls-3" x="742.26" y="523.82" width="10" height="10"/>
      <rect class="cls-3" x="743.39" y="523.71" width="10" height="10"/>
      <rect class="cls-3" x="1017.48" y="833.56" width="10" height="10"/>
      <rect class="cls-3" x="1152.66" y="890.88" width="10" height="10"/>
      <rect class="cls-3" x="1162.73" y="915.81" width="10" height="10"/>
      <rect class="cls-3" x="1137.81" y="925.88" width="10" height="10"/>
      <rect class="cls-3" x="1002.64" y="868.56" width="10" height="10"/>
      <rect class="cls-3" x="992.56" y="843.63" width="10" height="10"/>
      <rect class="cls-3" x="1136.55" y="555.22" width="10" height="10"/>
      <rect class="cls-3" x="1161.43" y="565.39" width="10" height="10"/>
      <rect class="cls-3" x="1151.27" y="590.27" width="10" height="10"/>
      <rect class="cls-3" x="1015.89" y="647.12" width="10" height="10"/>
      <rect class="cls-3" x="991.01" y="636.95" width="10" height="10"/>
      <rect class="cls-3" x="1001.17" y="612.07" width="10" height="10"/>
      <rect class="cls-3" x="468.65" y="837.66" width="10" height="10"/>
      <rect class="cls-3" x="333.48" y="894.98" width="10" height="10"/>
      <rect class="cls-3" x="323.4" y="919.91" width="10" height="10"/>
      <rect class="cls-3" x="348.32" y="929.98" width="10" height="10"/>
      <rect class="cls-3" x="483.49" y="872.66" width="10" height="10"/>
      <rect class="cls-3" x="493.57" y="847.73" width="10" height="10"/>
      <rect class="cls-3" x="345.54" y="560.89" width="10" height="10"/>
      <rect class="cls-3" x="320.79" y="571.39" width="10" height="10"/>
      <rect class="cls-3" x="331.29" y="596.14" width="10" height="10"/>
      <rect class="cls-3" x="467.4" y="651.18" width="10" height="10"/>
      <rect class="cls-3" x="492.15" y="640.69" width="10" height="10"/>
      <rect class="cls-3" x="481.66" y="615.94" width="10" height="10"/>
    </g>
  </g>
</svg>