<svg width="358" height="253" viewBox="0 0 358 253" fill="none" xmlns="http://www.w3.org/2000/svg">
<g clip-path="url(#clip0_514_15)">
<path d="M196.21 40.7733C197.49 41.3188 198.978 40.7091 199.521 39.4254L207.151 21.3734C207.695 20.0897 207.087 18.5975 205.807 18.0519C204.528 17.5063 203.04 18.1161 202.497 19.3998L194.867 37.4517C194.323 38.7354 194.931 40.2277 196.21 40.7733Z" fill="white"/>
<path d="M165.468 39.3933C165.996 40.6931 167.468 41.3189 168.763 40.7894C170.059 40.2598 170.683 38.7836 170.155 37.4838L162.829 19.3035C162.301 18.0038 160.83 17.378 159.534 17.9075C158.239 18.437 157.615 19.9133 158.143 21.213L165.468 39.3933Z" fill="white"/>
<path d="M182.631 0C141.908 0 108.782 33.2316 108.782 74.0852C108.782 114.939 141.908 148.17 182.631 148.17C223.354 148.17 256.48 114.939 256.48 74.0852C256.48 33.2316 223.354 0 182.631 0ZM182.631 6.01731C220.043 6.01731 250.482 36.5532 250.482 74.0852C250.482 87.6442 246.483 100.289 239.653 110.911C228.84 107.044 215.149 104.38 200.209 103.209C200.257 102.936 200.289 102.647 200.289 102.342V72.0955C200.289 70.4908 199.49 69.0306 198.162 68.1802L185.158 58.6809C183.655 57.702 181.639 57.686 180.088 58.6809L167.116 68.1641C165.772 69.0306 164.972 70.5069 164.972 72.0955V102.342C164.972 102.631 165.004 102.904 165.052 103.161C150.113 104.316 136.389 106.948 125.529 110.767C118.731 100.176 114.78 87.58 114.78 74.0691C114.78 36.5371 145.219 6.00127 182.631 6.00127V6.01731ZM169.643 102.728C169.435 102.728 169.259 102.551 169.259 102.342V72.0955C169.259 71.9671 169.323 71.8387 169.451 71.7585L182.423 62.2912C182.423 62.2912 182.583 62.2271 182.631 62.2271C182.679 62.2271 182.759 62.2271 182.823 62.2752L195.827 71.7745C195.939 71.8387 196.003 71.9671 196.003 72.0955V102.342C196.003 102.551 195.827 102.728 195.619 102.728H192.212C188.981 102.583 185.718 102.519 182.407 102.519C179.096 102.519 175.849 102.599 172.634 102.728H169.643ZM142.531 128.947C154.672 126.332 168.843 124.887 183.591 124.887C198.338 124.887 211.39 126.203 223.178 128.626C211.854 137.115 197.826 142.153 182.631 142.153C167.436 142.153 153.76 137.243 142.515 128.947H142.531ZM228.217 124.47C215.181 121.421 199.714 119.737 183.591 119.737C167.468 119.737 150.833 121.55 137.477 124.839C134.214 121.919 131.239 118.694 128.6 115.195C142.883 110.398 162.109 107.686 182.423 107.686C202.737 107.686 222.282 110.446 236.598 115.324C234.087 118.629 231.288 121.694 228.233 124.486L228.217 124.47Z" fill="white"/>
<path d="M180.359 75.064H174.681V80.7604H180.359V75.064Z" fill="white"/>
<path d="M190.58 75.064H184.902V80.7604H190.58V75.064Z" fill="white"/>
<path d="M180.359 85.3175H174.681V91.0139H180.359V85.3175Z" fill="white"/>
<path d="M190.58 85.3175H184.902V91.0139H190.58V85.3175Z" fill="white"/>
<path d="M182.775 44.8811C182.775 44.8811 182.679 44.8811 182.631 44.8811C182.583 44.8811 182.535 44.8811 182.487 44.8811C166.348 44.8811 153.2 58.055 153.2 74.2616C153.2 78.6422 154.144 82.8624 155.999 86.7937C156.383 87.6121 157.199 88.0934 158.047 88.0934C158.367 88.0934 158.702 88.0293 159.006 87.8688C160.142 87.3393 160.622 85.9754 160.078 84.8521C158.511 81.5306 157.727 77.9683 157.727 74.2616C157.727 60.5582 168.827 49.4222 182.503 49.4222C182.551 49.4222 182.599 49.4222 182.647 49.4222C182.695 49.4222 182.743 49.4222 182.791 49.4222C196.451 49.4222 207.551 60.5582 207.551 74.2616C207.551 77.9683 206.751 81.5306 205.2 84.8521C204.672 85.9914 205.152 87.3393 206.272 87.8688C206.592 88.0132 206.911 88.0934 207.231 88.0934C208.079 88.0934 208.895 87.6121 209.279 86.7937C211.134 82.8624 212.078 78.6422 212.078 74.2616C212.078 58.0711 198.946 44.8811 182.791 44.8811H182.775Z" fill="white"/>
<path d="M215.965 87.6282C215.421 88.9119 216.029 90.4041 217.308 90.9497L235.303 98.6037C236.582 99.1493 238.07 98.5396 238.613 97.2559C239.157 95.9722 238.549 94.4799 237.27 93.9343L219.276 86.2803C217.996 85.7347 216.508 86.3445 215.965 87.6282Z" fill="white"/>
<path d="M217.1 56.6911C215.821 57.2367 215.213 58.729 215.741 60.0127C216.268 61.2964 217.772 61.9061 219.052 61.3766L237.078 53.7868C238.357 53.2412 238.965 51.7489 238.437 50.4652C237.894 49.1815 236.406 48.5718 235.127 49.1013L217.1 56.6911Z" fill="white"/>
<path d="M149.521 88.1738C150.065 89.4575 149.457 90.9498 148.178 91.4954L130.183 99.1494C128.904 99.695 127.416 99.0852 126.872 97.8015C126.328 96.5178 126.936 95.0255 128.216 94.48L146.21 86.8259C147.49 86.2804 148.977 86.8901 149.521 88.1738Z" fill="white"/>
<path d="M147.922 57.2047C149.217 57.7342 149.841 59.2104 149.313 60.5102C148.785 61.8099 147.314 62.4357 146.018 61.9062L127.896 54.557C126.6 54.0275 125.976 52.5513 126.504 51.2515C127.032 49.9518 128.504 49.326 129.799 49.8555L147.922 57.2047Z" fill="white"/>
<path d="M19.5779 204.862C18.2343 204.862 16.8747 204.765 15.5312 204.557C14.1876 204.364 12.908 204.043 11.7084 203.626C10.5087 203.209 9.43706 202.695 8.49336 202.086C7.93353 201.716 7.54965 201.267 7.34172 200.754C7.13378 200.224 7.05381 199.711 7.13378 199.213C7.21376 198.716 7.4057 198.267 7.7256 197.881C8.0455 197.496 8.46137 197.256 8.94122 197.159C9.43706 197.063 9.9649 197.208 10.5567 197.577C11.9003 198.379 13.3398 198.957 14.8434 199.326C16.3469 199.695 17.9304 199.887 19.5779 199.887C22.0091 199.887 23.7686 199.486 24.8722 198.668C25.9759 197.849 26.5357 196.79 26.5357 195.507C26.5357 194.432 26.1518 193.581 25.3681 192.971C24.5843 192.362 23.2407 191.848 21.3373 191.447L16.2829 190.388C13.3718 189.778 11.1965 188.735 9.77296 187.275C8.3494 185.815 7.62963 183.889 7.62963 181.482C7.62963 179.974 7.93353 178.61 8.55734 177.374C9.16515 176.139 10.0289 175.08 11.1485 174.181C12.2682 173.283 13.5958 172.609 15.1473 172.127C16.6988 171.646 18.4103 171.405 20.2817 171.405C22.1531 171.405 23.8645 171.63 25.528 172.095C27.1915 172.561 28.679 173.235 29.9906 174.133C30.4865 174.47 30.8064 174.887 30.9823 175.385C31.1423 175.882 31.1903 176.364 31.0943 176.845C30.9983 177.326 30.7904 177.727 30.4545 178.064C30.1186 178.401 29.7027 178.594 29.1909 178.658C28.679 178.722 28.1032 178.562 27.4634 178.193C26.3278 177.551 25.1761 177.086 24.0085 176.813C22.8409 176.54 21.5773 176.396 20.2337 176.396C18.8901 176.396 17.6105 176.588 16.6028 176.989C15.5951 177.391 14.8114 177.952 14.2835 178.674C13.7397 179.396 13.4838 180.247 13.4838 181.242C13.4838 182.349 13.8517 183.231 14.5875 183.889C15.3232 184.547 16.5868 185.061 18.3623 185.43L23.3847 186.489C26.4237 187.131 28.679 188.157 30.1666 189.537C31.6541 190.917 32.4059 192.763 32.4059 195.073C32.4059 196.55 32.102 197.881 31.5102 199.085C30.9183 200.288 30.0546 201.315 28.935 202.182C27.8153 203.048 26.4717 203.706 24.9042 204.172C23.3367 204.637 21.5773 204.862 19.6099 204.862H19.5779Z" fill="white"/>
<path d="M45.122 192.939C44.5461 193.276 44.0023 193.421 43.5065 193.356C43.0106 193.292 42.6108 193.1 42.2909 192.779C41.971 192.458 41.747 192.057 41.6511 191.607C41.5391 191.142 41.5871 190.677 41.763 190.227C41.955 189.762 42.3388 189.361 42.9147 189.024L58.3338 180.118C58.9097 179.781 59.4535 179.653 59.9493 179.733C60.4452 179.813 60.845 180.006 61.1649 180.327C61.4848 180.648 61.6928 181.049 61.8047 181.498C61.9167 181.964 61.8687 182.429 61.6928 182.878C61.5168 183.344 61.133 183.745 60.5411 184.082L45.122 192.939ZM49.6326 204.396C48.6888 204.396 47.9531 204.123 47.4252 203.594C46.8974 203.064 46.6415 202.31 46.6415 201.363V174.727C46.6415 173.748 46.8974 172.994 47.3933 172.48C47.8891 171.967 48.6249 171.726 49.5846 171.726C50.5443 171.726 51.264 171.983 51.7759 172.48C52.2877 172.978 52.5276 173.732 52.5276 174.727V199.374H65.8675C66.6992 199.374 67.339 199.582 67.7709 200.016C68.2187 200.449 68.4427 201.059 68.4427 201.861C68.4427 202.663 68.2187 203.289 67.7709 203.738C67.323 204.188 66.6832 204.412 65.8675 204.412H49.6166L49.6326 204.396Z" fill="white"/>
<path d="M94.4983 204.862C91.3633 204.862 88.6282 204.172 86.2769 202.792C83.9256 201.412 82.1182 199.454 80.8226 196.951C79.527 194.448 78.8872 191.495 78.8872 188.109C78.8872 185.558 79.2551 183.247 79.9909 181.209C80.7266 179.156 81.7823 177.407 83.1419 175.946C84.5014 174.486 86.1489 173.363 88.0683 172.577C89.9877 171.79 92.1311 171.405 94.4823 171.405C97.6493 171.405 100.384 172.095 102.72 173.459C105.055 174.823 106.862 176.765 108.142 179.252C109.438 181.739 110.077 184.675 110.077 188.061C110.077 190.613 109.71 192.923 108.974 194.993C108.238 197.063 107.182 198.828 105.823 200.304C104.463 201.781 102.816 202.92 100.896 203.69C98.9769 204.476 96.8336 204.862 94.4823 204.862H94.4983ZM94.4983 199.775C96.4977 199.775 98.1932 199.31 99.5847 198.395C100.976 197.464 102.048 196.132 102.8 194.383C103.551 192.634 103.935 190.532 103.935 188.109C103.935 184.419 103.12 181.562 101.472 179.525C99.8247 177.487 97.5054 176.476 94.4983 176.476C92.5309 176.476 90.8515 176.925 89.4439 177.84C88.0363 178.754 86.9487 180.07 86.1969 181.803C85.4452 183.536 85.0773 185.638 85.0773 188.109C85.0773 191.768 85.909 194.64 87.5565 196.694C89.22 198.764 91.5233 199.791 94.4983 199.791V199.775Z" fill="white"/>
<path d="M128.04 204.765C127.144 204.765 126.472 204.525 125.992 204.027C125.513 203.53 125.273 202.824 125.273 201.909V174.438C125.273 173.491 125.513 172.753 125.992 172.24C126.472 171.726 127.096 171.485 127.864 171.485C128.568 171.485 129.096 171.614 129.447 171.887C129.799 172.143 130.215 172.593 130.711 173.202L148.337 196.148H147.138V174.31C147.138 173.411 147.378 172.721 147.858 172.24C148.337 171.742 149.009 171.502 149.905 171.502C150.801 171.502 151.473 171.742 151.936 172.24C152.4 172.737 152.624 173.427 152.624 174.31V202.005C152.624 202.872 152.416 203.546 151.984 204.043C151.552 204.541 150.977 204.781 150.241 204.781C149.505 204.781 148.977 204.637 148.561 204.364C148.146 204.091 147.698 203.642 147.202 203.032L129.623 180.086H130.775V201.925C130.775 202.856 130.551 203.562 130.087 204.043C129.623 204.541 128.952 204.781 128.056 204.781L128.04 204.765Z" fill="white"/>
<path d="M172.026 204.396C171.019 204.396 170.235 204.123 169.707 203.594C169.163 203.064 168.907 202.278 168.907 201.267V175C168.907 173.989 169.179 173.202 169.707 172.673C170.251 172.127 171.019 171.871 172.026 171.871H188.453C189.221 171.871 189.813 172.063 190.229 172.464C190.644 172.865 190.852 173.427 190.852 174.165C190.852 174.903 190.644 175.529 190.229 175.946C189.813 176.364 189.221 176.572 188.453 176.572H174.553V185.526H187.445C188.245 185.526 188.837 185.718 189.237 186.12C189.637 186.521 189.829 187.098 189.829 187.869C189.829 188.639 189.637 189.217 189.237 189.618C188.837 190.019 188.245 190.211 187.445 190.211H174.553V199.679H188.453C189.221 199.679 189.813 199.871 190.229 200.272C190.644 200.673 190.852 201.251 190.852 202.021C190.852 202.792 190.644 203.369 190.229 203.77C189.813 204.172 189.221 204.364 188.453 204.364H172.026V204.396Z" fill="white"/>
<path d="M220.619 204.862C217.244 204.862 214.349 204.172 211.95 202.808C209.534 201.444 207.695 199.502 206.399 196.999C205.104 194.496 204.464 191.527 204.464 188.109C204.464 185.558 204.832 183.247 205.568 181.209C206.303 179.156 207.359 177.407 208.735 175.946C210.11 174.486 211.806 173.363 213.821 172.577C215.836 171.79 218.092 171.405 220.603 171.405C222.282 171.405 223.946 171.614 225.577 172.047C227.209 172.48 228.632 173.09 229.864 173.892C230.504 174.294 230.936 174.775 231.16 175.353C231.367 175.93 231.415 176.476 231.303 177.021C231.176 177.567 230.936 178.016 230.552 178.385C230.168 178.754 229.688 178.963 229.128 179.011C228.552 179.059 227.945 178.867 227.257 178.433C226.313 177.824 225.273 177.374 224.17 177.102C223.066 176.829 221.946 176.684 220.811 176.684C218.635 176.684 216.796 177.134 215.292 178.016C213.789 178.915 212.653 180.199 211.886 181.899C211.118 183.584 210.734 185.67 210.734 188.125C210.734 190.58 211.118 192.634 211.886 194.351C212.653 196.068 213.789 197.384 215.292 198.283C216.796 199.181 218.635 199.614 220.811 199.614C221.978 199.614 223.13 199.47 224.266 199.181C225.401 198.892 226.473 198.443 227.481 197.817C228.152 197.416 228.76 197.24 229.304 197.288C229.832 197.336 230.296 197.528 230.664 197.865C231.032 198.202 231.271 198.62 231.399 199.133C231.527 199.647 231.495 200.16 231.303 200.706C231.128 201.235 230.76 201.716 230.2 202.118C228.968 203.016 227.513 203.69 225.801 204.172C224.106 204.653 222.378 204.894 220.619 204.894V204.862Z" fill="white"/>
<path d="M246.995 204.396C246.227 204.396 245.603 204.236 245.123 203.931C244.643 203.626 244.324 203.193 244.164 202.663C243.988 202.134 243.988 201.524 244.164 200.866C244.34 200.208 244.675 199.518 245.203 198.812L262.782 174.903V176.797H246.531C245.667 176.797 245.027 176.588 244.58 176.155C244.132 175.722 243.908 175.112 243.908 174.31C243.908 173.507 244.132 172.898 244.58 172.48C245.027 172.063 245.683 171.855 246.531 171.855H265.581C266.349 171.855 266.972 172.015 267.452 172.32C267.932 172.625 268.252 173.042 268.412 173.572C268.572 174.101 268.588 174.695 268.412 175.369C268.236 176.043 267.9 176.733 267.372 177.439L249.794 201.299V199.454H266.733C267.596 199.454 268.236 199.663 268.684 200.08C269.132 200.497 269.356 201.107 269.356 201.909C269.356 202.711 269.132 203.321 268.684 203.754C268.236 204.188 267.58 204.396 266.733 204.396H246.995Z" fill="white"/>
<path d="M285.463 204.765C284.567 204.765 283.895 204.525 283.416 204.027C282.936 203.53 282.696 202.824 282.696 201.909V174.438C282.696 173.491 282.936 172.753 283.416 172.24C283.895 171.726 284.519 171.485 285.287 171.485C285.991 171.485 286.519 171.614 286.87 171.887C287.222 172.143 287.638 172.593 288.134 173.202L305.761 196.148H304.561V174.31C304.561 173.411 304.801 172.721 305.281 172.24C305.761 171.742 306.432 171.502 307.328 171.502C308.224 171.502 308.896 171.742 309.359 172.24C309.823 172.737 310.047 173.427 310.047 174.31V202.005C310.047 202.872 309.839 203.546 309.407 204.043C308.976 204.541 308.4 204.781 307.664 204.781C306.928 204.781 306.4 204.637 305.985 204.364C305.569 204.091 305.121 203.642 304.625 203.032L287.046 180.086H288.198V201.925C288.198 202.856 287.974 203.562 287.51 204.043C287.046 204.541 286.375 204.781 285.479 204.781L285.463 204.765Z" fill="white"/>
<path d="M336.999 204.765C336.055 204.765 335.319 204.492 334.807 203.963C334.296 203.433 334.056 202.663 334.056 201.684V187.644L335.303 191.206L324.219 175.561C323.819 175 323.643 174.422 323.691 173.78C323.739 173.154 323.995 172.609 324.443 172.159C324.906 171.71 325.546 171.485 326.378 171.485C326.986 171.485 327.546 171.646 328.057 171.951C328.569 172.256 329.049 172.737 329.513 173.379L337.75 185.109H336.455L344.74 173.379C345.236 172.705 345.7 172.224 346.164 171.919C346.628 171.63 347.187 171.485 347.859 171.485C348.659 171.485 349.283 171.694 349.731 172.111C350.179 172.528 350.402 173.042 350.418 173.652C350.434 174.261 350.211 174.919 349.747 175.593L338.742 191.19L339.942 187.628V201.668C339.942 203.738 338.966 204.765 336.999 204.765Z" fill="white"/>
<path d="M2.76713 252.904C1.87141 252.904 1.19962 252.663 0.719775 252.166C0.239925 251.668 0 250.962 0 250.048V222.577C0 221.63 0.239925 220.892 0.719775 220.378C1.19962 219.865 1.82343 219.624 2.59119 219.624C3.29497 219.624 3.8228 219.752 4.17469 220.025C4.52658 220.282 4.94245 220.731 5.4383 221.341L23.0648 244.287H21.8652V222.448C21.8652 221.55 22.1051 220.86 22.5849 220.378C23.0648 219.881 23.7366 219.64 24.6323 219.64C25.528 219.64 26.1998 219.881 26.6637 220.378C27.1275 220.876 27.3514 221.566 27.3514 222.448V250.144C27.3514 251.01 27.1435 251.684 26.7116 252.182C26.2798 252.679 25.704 252.92 24.9682 252.92C24.2324 252.92 23.7046 252.775 23.2887 252.503C22.8728 252.23 22.425 251.781 21.9291 251.171L4.35064 228.225H5.50228V250.064C5.50228 250.994 5.27835 251.7 4.81449 252.182C4.35064 252.679 3.67885 252.92 2.78313 252.92L2.76713 252.904Z" fill="white"/>
<path d="M58.1577 253C55.0227 253 52.2876 252.31 49.9363 250.93C47.5851 249.55 45.7776 247.593 44.482 245.089C43.1864 242.586 42.5466 239.634 42.5466 236.248C42.5466 233.697 42.9145 231.386 43.6503 229.348C44.3861 227.294 45.4417 225.545 46.8013 224.085C48.1609 222.625 49.8084 221.501 51.7278 220.715C53.6472 219.929 55.7905 219.544 58.1417 219.544C61.3088 219.544 64.0439 220.234 66.3792 221.598C68.7144 222.962 70.5219 224.903 71.8015 227.39C73.0971 229.878 73.7369 232.814 73.7369 236.2C73.7369 238.751 73.369 241.062 72.6332 243.132C71.8974 245.202 70.8418 246.967 69.4822 248.443C68.1226 249.919 66.4751 251.059 64.5557 251.829C62.6363 252.615 60.493 253 58.1417 253H58.1577ZM58.1577 247.913C60.1571 247.913 61.8526 247.448 63.2442 246.533C64.6357 245.603 65.7074 244.271 66.4591 242.522C67.2109 240.773 67.5948 238.671 67.5948 236.248C67.5948 232.557 66.779 229.701 65.1316 227.663C63.4841 225.625 61.1648 224.614 58.1577 224.614C56.1904 224.614 54.5109 225.064 53.1033 225.978C51.6958 226.893 50.6081 228.209 49.8563 229.942C49.1046 231.675 48.7367 233.777 48.7367 236.248C48.7367 239.906 49.5684 242.779 51.2159 244.833C52.8794 246.903 55.1827 247.929 58.1577 247.929V247.913Z" fill="white"/>
<path d="M99.537 252.904C98.7052 252.904 98.0334 252.711 97.5376 252.31C97.0417 251.909 96.6259 251.283 96.322 250.417L86.709 223.138C86.3731 222.159 86.4371 221.325 86.9169 220.651C87.3968 219.977 88.1965 219.64 89.3322 219.64C90.1639 219.64 90.8037 219.833 91.2676 220.218C91.7314 220.603 92.0993 221.213 92.3712 222.047L100.657 246.694H98.8172L107.47 222.095C107.774 221.261 108.158 220.651 108.622 220.25C109.086 219.849 109.678 219.656 110.414 219.656C111.149 219.656 111.725 219.849 112.157 220.25C112.589 220.651 112.957 221.277 113.261 222.143L121.642 246.71H120.027L128.44 222.063C128.712 221.261 129.08 220.667 129.544 220.266C130.007 219.865 130.631 219.672 131.431 219.672C132.407 219.672 133.126 220.009 133.59 220.683C134.054 221.357 134.118 222.191 133.766 223.17L124.057 250.497C123.753 251.331 123.354 251.941 122.858 252.342C122.362 252.743 121.706 252.936 120.874 252.936C120.043 252.936 119.387 252.743 118.891 252.342C118.395 251.941 117.995 251.315 117.691 250.449L109.678 227.551H110.733L102.64 250.497C102.336 251.331 101.936 251.941 101.472 252.342C100.993 252.743 100.337 252.936 99.521 252.936L99.537 252.904Z" fill="white"/>
<path d="M159.438 252.904C158.494 252.904 157.759 252.631 157.247 252.101C156.735 251.572 156.495 250.802 156.495 249.823V235.783L157.743 239.345L146.658 223.7C146.258 223.138 146.082 222.56 146.13 221.919C146.178 221.293 146.434 220.747 146.882 220.298C147.346 219.849 147.986 219.624 148.817 219.624C149.425 219.624 149.985 219.784 150.497 220.089C151.009 220.394 151.489 220.876 151.952 221.517L160.19 233.247H158.894L167.18 221.517C167.676 220.844 168.139 220.362 168.603 220.057C169.067 219.768 169.627 219.624 170.299 219.624C171.098 219.624 171.722 219.833 172.17 220.25C172.618 220.667 172.842 221.181 172.858 221.79C172.858 222.4 172.65 223.058 172.186 223.732L161.182 239.329L162.381 235.766V249.807C162.381 251.877 161.405 252.904 159.438 252.904Z" fill="white"/>
<path d="M222.619 253C219.484 253 216.748 252.31 214.413 250.93C212.062 249.55 210.254 247.593 208.959 245.089C207.663 242.586 207.023 239.634 207.023 236.248C207.023 233.697 207.391 231.386 208.127 229.348C208.863 227.294 209.919 225.545 211.278 224.085C212.638 222.625 214.285 221.501 216.205 220.715C218.124 219.929 220.267 219.544 222.619 219.544C225.786 219.544 228.521 220.234 230.856 221.598C233.191 222.962 234.999 224.903 236.278 227.39C237.574 229.878 238.214 232.814 238.214 236.2C238.214 238.751 237.846 241.062 237.11 243.132C236.374 245.202 235.319 246.967 233.959 248.443C232.599 249.919 230.952 251.059 229.033 251.829C227.113 252.615 224.97 253 222.619 253ZM222.619 247.913C224.618 247.913 226.313 247.448 227.705 246.533C229.097 245.603 230.168 244.271 230.92 242.522C231.672 240.773 232.056 238.671 232.056 236.248C232.056 232.557 231.24 229.701 229.592 227.663C227.945 225.625 225.626 224.614 222.619 224.614C220.651 224.614 218.972 225.064 217.564 225.978C216.157 226.893 215.069 228.209 214.317 229.942C213.565 231.675 213.182 233.777 213.182 236.248C213.182 239.906 214.013 242.779 215.661 244.833C217.324 246.903 219.628 247.929 222.603 247.929L222.619 247.913Z" fill="white"/>
<path d="M262.19 252.904C261.246 252.904 260.51 252.631 259.999 252.101C259.487 251.572 259.247 250.818 259.247 249.855V224.919H250.274C249.474 224.919 248.85 224.695 248.402 224.245C247.954 223.796 247.73 223.186 247.73 222.416C247.73 221.646 247.954 221.004 248.402 220.587C248.85 220.17 249.474 219.961 250.274 219.961H274.106C274.906 219.961 275.53 220.17 275.978 220.587C276.425 221.004 276.649 221.614 276.649 222.416C276.649 223.218 276.425 223.796 275.978 224.245C275.53 224.695 274.906 224.919 274.106 224.919H265.133V249.855C265.133 250.802 264.893 251.556 264.397 252.101C263.901 252.647 263.166 252.904 262.19 252.904Z" fill="white"/>
<path d="M301.778 253C298.643 253 295.907 252.31 293.556 250.93C291.205 249.55 289.397 247.593 288.102 245.089C286.806 242.586 286.167 239.634 286.167 236.248C286.167 233.697 286.534 231.386 287.27 229.348C288.006 227.31 289.062 225.545 290.421 224.085C291.781 222.625 293.428 221.501 295.348 220.715C297.267 219.929 299.41 219.544 301.762 219.544C304.913 219.544 307.664 220.234 309.999 221.598C312.334 222.962 314.142 224.903 315.421 227.39C316.717 229.878 317.357 232.814 317.357 236.2C317.357 238.751 316.989 241.062 316.253 243.132C315.517 245.202 314.462 246.967 313.102 248.443C311.742 249.919 310.095 251.059 308.176 251.829C306.256 252.615 304.113 253 301.762 253H301.778ZM301.778 247.913C303.777 247.913 305.472 247.448 306.864 246.533C308.256 245.619 309.327 244.271 310.079 242.522C310.831 240.773 311.215 238.671 311.215 236.248C311.215 232.557 310.399 229.701 308.751 227.663C307.104 225.625 304.785 224.614 301.778 224.614C299.81 224.614 298.131 225.064 296.707 225.978C295.3 226.893 294.212 228.209 293.46 229.942C292.708 231.675 292.341 233.777 292.341 236.248C292.341 239.906 293.172 242.779 294.82 244.833C296.483 246.903 298.787 247.929 301.762 247.929L301.778 247.913Z" fill="white"/>
<path d="M335.495 252.904C334.551 252.904 333.815 252.631 333.304 252.101C332.792 251.572 332.552 250.818 332.552 249.855V222.625C332.552 221.646 332.808 220.892 333.304 220.378C333.815 219.865 334.535 219.624 335.495 219.624C336.455 219.624 337.174 219.881 337.686 220.378C338.198 220.892 338.438 221.63 338.438 222.625V234.403H338.534L351.746 221.1C352.242 220.603 352.721 220.234 353.217 219.993C353.713 219.752 354.257 219.624 354.881 219.624C355.776 219.624 356.416 219.849 356.8 220.314C357.184 220.779 357.328 221.309 357.264 221.935C357.184 222.544 356.896 223.122 356.368 223.636L342.932 236.97L342.98 234.29L357.008 248.603C357.648 249.213 357.984 249.871 358.016 250.545C358.048 251.219 357.84 251.781 357.392 252.23C356.944 252.679 356.288 252.904 355.441 252.904C354.705 252.904 354.113 252.743 353.665 252.438C353.217 252.134 352.705 251.684 352.13 251.107L338.55 237.483H338.454V249.855C338.454 250.802 338.214 251.556 337.718 252.101C337.222 252.647 336.487 252.904 335.511 252.904H335.495Z" fill="white"/>
</g>
<defs>
<clipPath id="clip0_514_15">
<rect width="358" height="253" fill="white"/>
</clipPath>
</defs>
</svg>
