<svg width="105" height="38" viewBox="0 0 105 38" fill="none" xmlns="http://www.w3.org/2000/svg">
<g clip-path="url(#clip0_510_67)">
<path d="M104.691 11.6227L104.309 8.311L101.343 9.46957C102.251 10.4853 103.406 11.2312 104.691 11.6227Z" fill="#0068FF"/>
<path d="M91.0736 34.4767L104.634 13.5748C102.617 13.2627 100.822 12.0989 99.677 10.3636L86.0601 31.3607C87.2361 33.0695 89.0517 34.2016 91.0736 34.4767Z" fill="#0068FF"/>
<path d="M89.5006 37.1377L90.0474 36.2119C88.0254 35.9368 86.2099 34.8047 85.0338 33.0959L82.8933 36.7198C84.0642 38.4338 87.4787 36.852 89.5006 37.1377Z" fill="#0068FF"/>
<path d="M10.8112 16.913C11.7139 16.913 12.3896 17.1563 12.8331 17.6483C13.2767 18.1403 13.5707 18.8333 13.71 19.738C13.8493 20.6426 13.9215 21.7324 13.9215 23.0179C14.7106 23.219 15.6906 23.3195 16.8615 23.3195C17.9292 23.3195 18.8009 23.0127 19.4766 22.3937C20.1522 21.78 20.4875 20.8384 20.4875 19.574C20.4875 18.3731 20.2554 17.2727 19.7964 16.2729C19.3373 15.2677 18.6822 14.3948 17.8363 13.6542C16.9904 12.9082 15.9795 12.3369 14.8138 11.9295C13.6481 11.5222 12.3638 11.3212 10.9608 11.3212C9.55786 11.3212 8.28901 11.5645 6.98921 12.0565C5.68941 12.5485 4.5134 13.3156 3.46118 14.3737C2.40897 15.4317 1.56822 16.8072 0.944115 18.5106C0.320005 20.2141 0.00537109 22.2826 0.00537109 24.7108C0.00537109 26.7 0.237478 28.5092 0.696534 30.1387C1.15559 31.7681 1.83644 33.17 2.73392 34.3444C3.6314 35.5189 4.75583 36.4182 6.10205 37.053C7.45342 37.6879 9.01628 38 10.7906 38C12.5649 38 14.3599 37.6508 16.062 36.9472C17.7641 36.2489 19.1671 35.3072 20.2709 34.1222C20.1213 33.3816 19.7654 32.5775 19.198 31.7204C18.6307 30.8581 18.0581 30.2497 17.4804 29.9006C16.6913 30.4931 15.8196 31.0063 14.8757 31.4453C13.9318 31.8844 12.9569 32.1066 11.9511 32.1066C10.5018 32.1066 9.40312 31.5564 8.64491 30.4614C7.88669 29.3663 7.51016 27.4512 7.51016 24.7161C7.51016 21.9811 7.7629 20.0184 8.26322 18.7804C8.76354 17.5425 9.6146 16.9183 10.8164 16.9183L10.8112 16.913Z" fill="#01122D"/>
<path d="M56.3763 31.0645V19.6216C56.3763 18.0874 56.1287 16.712 55.6335 15.4952C55.1384 14.2784 54.4111 13.3209 53.4517 12.6226C52.4872 11.9243 51.2854 11.5698 49.836 11.5698C48.6858 11.5698 47.5407 11.8185 46.406 12.3158C45.2712 12.813 44.1984 13.469 43.1977 14.2784C42.8418 14.5641 42.5272 14.8657 42.2023 15.1619C41.6916 14.1092 41.0056 13.2415 40.0875 12.6067C39.0817 11.9137 37.8644 11.5698 36.4357 11.5698C35.27 11.5698 34.1404 11.8449 33.0572 12.3951C31.9689 12.9453 30.958 13.6383 30.0192 14.4848C29.8645 14.6223 29.7252 14.7704 29.5756 14.908C29.3951 14.2414 29.1217 13.6648 28.7607 13.1781C28.0334 12.2099 26.9657 11.7232 25.5525 11.7232H22.8136L22.468 12.0777V37.2647C22.9941 37.3652 23.5873 37.4392 24.2475 37.4816C24.9077 37.5239 25.537 37.545 26.1456 37.545C26.7543 37.545 27.4145 37.5239 28.085 37.4816C28.7504 37.4392 29.3384 37.3705 29.849 37.2647V20.2194C30.2513 19.8332 30.6691 19.4788 31.1179 19.1772C31.9328 18.627 32.7014 18.3519 33.4235 18.3519C34.0476 18.3519 34.5943 18.5953 35.0637 19.0873C35.5331 19.5793 35.7652 20.521 35.7652 21.9229V37.2647C36.3067 37.3652 36.9102 37.4392 37.5653 37.4816C38.2255 37.5239 38.8548 37.545 39.4634 37.545C40.072 37.545 40.7322 37.5239 41.3873 37.4816C42.0475 37.4392 42.6304 37.3705 43.141 37.2647V20.2829C43.5536 19.8755 43.9714 19.4999 44.4099 19.1878C45.1939 18.6323 45.9211 18.3519 46.5968 18.3519C47.2055 18.3519 47.7574 18.59 48.2525 19.0608C48.7477 19.5317 48.9953 20.4681 48.9953 21.87V33.0113C48.9953 34.4978 49.2841 35.6405 49.8566 36.4552C50.4343 37.2647 51.4607 37.672 52.9411 37.672C53.8643 37.672 54.7257 37.5133 55.5304 37.2012C56.335 36.889 57.0055 36.4976 57.5316 36.0267C57.088 35.4025 56.7837 34.6618 56.6187 33.8101C56.4536 32.9584 56.3711 32.0432 56.3711 31.0645H56.3763Z" fill="#01122D"/>
<path d="M80.469 32.2389C80.2214 31.5512 80.0976 30.7999 80.0976 29.9747V4.58137C80.0976 2.89378 79.7985 1.70876 79.195 1.02631C78.5915 0.343868 77.5599 0 76.0951 0H73.2324L72.9126 0.354448V12.7019C72.8508 12.6702 72.7992 12.6385 72.7424 12.6014C71.4272 11.8767 69.9107 11.5116 68.1983 11.5116C66.4859 11.5116 64.7837 12.0195 63.2879 13.0458C61.7921 14.0668 60.5955 15.5798 59.698 17.5796C58.8005 19.5793 58.3518 22.0393 58.3518 24.9595C58.3518 27.5094 58.6716 29.7631 59.3163 31.7204C59.9611 33.6778 60.9308 35.212 62.2306 36.3283C63.5304 37.4445 65.1654 38 67.1409 38C68.7708 38 70.2512 37.6032 71.5819 36.8097C72.5464 36.2383 73.3459 35.503 74.0629 34.6989C74.197 34.9316 74.3259 35.175 74.4858 35.3919C75.5277 36.8256 77.0957 37.5874 79.1898 37.672C79.6644 37.2858 80.1337 36.7039 80.598 35.9368C81.0622 35.1697 81.3562 34.4502 81.4851 33.7731C81.057 33.4345 80.7218 32.9266 80.4742 32.2442L80.469 32.2389ZM71.0042 31.403C70.2718 31.7469 69.6167 31.9215 69.0442 31.9215C68.4717 31.9215 67.9198 31.6834 67.4401 31.202C66.9604 30.7206 66.5839 29.9694 66.3053 28.9484C66.0268 27.9273 65.8875 26.6048 65.8875 24.9859C65.8875 23.3671 66.0165 21.9705 66.2692 20.8066C66.522 19.6428 66.914 18.7487 67.4401 18.1245C67.9662 17.5002 68.6419 17.1881 69.462 17.1881C70.3337 17.1881 71.2776 17.4843 72.2885 18.0716C72.5 18.1985 72.7063 18.3414 72.9178 18.4789V29.7525C72.2937 30.5196 71.6593 31.0962 71.0042 31.4083V31.403Z" fill="#01122D"/>
<path d="M82.073 13.1569C82.8622 12.5644 83.7029 12.1359 84.5901 11.8661C85.4772 11.5963 86.3025 11.4587 87.0607 11.4587C87.984 11.4587 88.7061 11.6597 89.2322 12.0512C89.7583 12.448 90.2741 13.0458 90.7847 13.834L105.005 35.9632C104.299 36.4711 103.494 36.8785 102.596 37.1906C101.699 37.5027 100.838 37.6614 100.017 37.6614C99.1148 37.6614 98.3617 37.471 97.7583 37.0901C97.1599 36.7092 96.6184 36.1431 96.1438 35.3813L82.073 13.1516V13.1569Z" fill="#FF007A"/>
<path d="M94.0807 18.9815L89.8667 25.4832L93.3431 30.9692L97.583 24.4305L94.0807 18.9815Z" fill="#E62177"/>
<g style="mix-blend-mode:multiply">
<path d="M97.583 24.4305L93.3431 30.9692L89.8667 25.4832L94.0807 18.9815L97.583 24.4305Z" fill="#0068FF"/>
</g>
<path d="M97.583 24.4305L93.3431 30.9692L89.8667 25.4832L94.0807 18.9815L97.583 24.4305Z" fill="#000D77"/>
</g>
<defs>
<clipPath id="clip0_510_67">
<rect width="105" height="38" fill="white"/>
</clipPath>
</defs>
</svg>
