<svg width="466" height="594" viewBox="0 0 466 594" fill="none" xmlns="http://www.w3.org/2000/svg">
<path d="M459.122 66.9729L451.374 0L391.17 23.4298C409.597 43.971 433.051 59.056 459.122 66.9729Z" fill="#0068FF"/>
<path d="M182.706 529.15L457.97 106.451C417.031 100.138 380.595 76.6016 357.351 41.5103L80.9353 466.136C104.808 500.692 141.663 523.587 182.706 529.15Z" fill="#0068FF"/>
<path d="M150.773 582.964L161.871 564.241C120.828 558.678 83.9723 535.783 60.1001 501.227L16.6484 574.512C40.416 609.175 109.729 577.187 150.773 582.964Z" fill="#0068FF"/>
<path d="M0 97.9988C16.0195 86.0164 33.0862 77.3506 51.095 71.8943C69.1039 66.438 85.8563 63.6564 101.248 63.6564C119.989 63.6564 134.648 67.7219 145.328 75.6388C156.007 83.6627 166.478 95.7521 176.843 111.693L465.509 559.213C451.165 569.484 434.831 577.722 416.613 584.034C398.394 590.346 380.909 593.556 364.261 593.556C345.938 593.556 330.652 589.704 318.401 582.001C306.256 574.298 295.262 562.851 285.629 547.445L0 97.8918V97.9988Z" fill="#FF007A"/>
<path d="M243.749 215.79L158.207 347.275L228.777 458.219L314.842 325.985L243.749 215.79Z" fill="#E62177"/>
<g style="mix-blend-mode:multiply">
<path d="M314.842 325.985L228.777 458.219L158.207 347.275L243.749 215.79L314.842 325.985Z" fill="#0068FF"/>
</g>
<path d="M314.842 325.985L228.777 458.219L158.207 347.275L243.749 215.79L314.842 325.985Z" fill="#000D77"/>
</svg>
